fontCallback.success({"glyphs":{"S":{"x_min":92,"x_max":805,"ha":882,"o":"m 744 979 l 744 845 q 596 901 666 882 q 463 920 527 920 q 290 876 351 920 q 230 752 230 832 q 270 650 230 685 q 423 595 310 616 l 506 578 q 732 475 659 549 q 805 278 805 402 q 706 55 805 131 q 416 -20 607 -20 q 263 -3 345 -20 q 96 44 182 12 l 96 185 q 259 114 179 138 q 417 91 339 91 q 598 137 534 91 q 662 268 662 183 q 616 385 662 343 q 466 448 570 427 l 382 464 q 160 560 229 495 q 92 741 92 625 q 186 953 92 876 q 447 1031 281 1031 q 592 1018 518 1031 q 744 979 666 1005 "},"¦":{"x_min":176,"x_max":291,"ha":468,"o":"m 291 277 l 291 -237 l 176 -237 l 176 277 l 291 277 m 291 971 l 291 457 l 176 457 l 176 971 l 291 971 "},"/":{"x_min":0,"x_max":468,"ha":468,"o":"m 352 1013 l 468 1013 l 115 -128 l 0 -128 l 352 1013 "},"₢":{"x_min":65.109375,"x_max":815.90625,"ha":884,"o":"m 552 93 q 677 124 617 98 q 812 221 749 156 l 812 78 q 673 5 746 29 q 517 -18 599 -18 q 186 121 307 -18 q 65 505 65 261 q 186 890 65 749 q 517 1030 307 1030 q 674 1006 600 1030 q 812 934 748 982 l 812 790 q 677 886 749 854 q 524 918 605 918 q 281 812 366 918 q 197 505 197 706 q 281 199 197 305 q 448 99 345 120 l 448 683 l 552 683 l 552 577 q 636 669 584 639 q 763 699 689 699 q 786 698 773 699 q 815 693 799 697 l 815 578 q 777 594 798 589 q 733 599 757 599 q 599 537 646 599 q 552 360 552 476 l 552 93 "},"y":{"x_min":41,"x_max":780,"ha":822,"o":"m 446 -70 q 343 -247 393 -206 q 209 -289 293 -289 l 110 -289 l 110 -185 l 183 -185 q 263 -160 234 -185 q 326 -44 291 -136 l 348 12 l 41 760 l 173 760 l 410 165 l 647 760 l 780 760 l 446 -70 "},"฿":{"x_min":133.609375,"x_max":807.078125,"ha":905,"o":"m 262 787 l 262 520 l 401 520 l 401 787 l 262 787 m 262 423 l 262 98 l 401 98 l 401 423 l 262 423 m 401 0 l 133 0 l 133 885 l 401 885 l 401 1068 l 469 1068 l 469 885 q 688 828 611 884 q 767 667 767 771 q 727 537 767 585 q 607 477 686 489 q 754 398 701 458 q 807 248 807 338 q 720 64 807 129 q 469 0 632 -1 l 469 -191 l 401 -191 l 401 0 m 469 787 l 469 520 q 592 553 550 523 q 638 653 638 585 q 592 754 638 720 q 469 787 550 784 m 469 423 l 469 98 q 621 138 572 99 q 671 261 671 178 q 621 383 671 344 q 469 423 572 423 "},"Á":{"x_min":11,"x_max":939,"ha":950,"o":"m 475 878 l 289 374 l 661 374 l 475 878 m 397 1013 l 553 1013 l 939 0 l 796 0 l 704 260 l 247 260 l 155 0 l 11 0 l 397 1013 m 511 1288 l 637 1288 l 482 1109 l 379 1109 l 511 1288 "},"g":{"x_min":77,"x_max":756,"ha":882,"o":"m 631 388 q 575 599 631 524 q 418 674 519 674 q 261 599 317 674 q 206 388 206 524 q 261 178 206 253 q 418 104 317 104 q 575 178 519 104 q 631 388 631 253 m 756 93 q 669 -194 756 -99 q 406 -289 583 -289 q 282 -279 340 -289 q 169 -249 223 -269 l 169 -128 q 277 -171 223 -157 q 386 -186 330 -186 q 570 -121 509 -186 q 631 71 631 -57 l 631 134 q 532 33 592 66 q 387 0 471 0 q 162 106 247 0 q 77 388 77 212 q 162 671 77 565 q 387 778 247 778 q 532 744 471 778 q 631 644 592 711 l 631 760 l 756 760 l 756 93 "},"²":{"x_min":64,"x_max":470,"ha":557,"o":"m 182 530 l 470 530 l 470 453 l 64 453 l 64 527 q 129 586 87 548 q 364 857 364 793 q 328 929 364 902 q 235 957 293 957 q 158 945 200 957 q 68 910 117 933 l 68 993 q 165 1021 120 1012 q 249 1031 210 1031 q 406 986 347 1031 q 466 868 466 941 q 241 580 466 773 q 182 530 203 548 "},"ë":{"x_min":77,"x_max":781,"ha":855,"o":"m 781 411 l 781 350 l 207 350 q 284 153 215 221 q 478 86 354 86 q 617 103 550 86 q 752 157 685 121 l 752 39 q 614 -4 684 10 q 471 -20 543 -20 q 183 85 289 -20 q 77 372 77 191 q 177 668 77 558 q 449 778 278 778 q 691 679 602 778 q 781 411 781 580 m 656 448 q 598 611 654 550 q 450 672 542 672 q 283 613 346 672 q 211 447 220 554 l 656 448 m 506 1053 l 644 1053 l 644 916 l 506 916 l 506 1053 m 240 1053 l 378 1053 l 378 916 l 240 916 l 240 1053 "},"Î":{"x_min":-3,"x_max":412,"ha":410,"o":"m 136 1013 l 273 1013 l 273 0 l 136 0 l 136 1013 m 140 1289 l 268 1289 l 412 1109 l 317 1109 l 204 1229 l 91 1109 l -3 1109 l 140 1289 "},"Ꙅ":{"x_min":77,"x_max":790,"ha":882,"o":"m 138 979 q 446 1031 292 1031 q 695 953 600 1031 q 790 750 790 876 q 721 560 790 625 q 499 464 652 495 l 416 448 q 265 385 311 427 q 220 263 220 343 q 283 137 220 183 q 465 91 347 91 q 786 185 617 91 l 786 44 q 465 -20 610 -20 q 175 55 274 -20 q 77 278 77 131 q 149 475 77 402 q 375 578 222 549 l 458 595 q 611 650 571 616 q 652 759 652 685 q 591 876 652 832 q 411 920 530 920 q 138 845 292 920 l 138 979 "},"e":{"x_min":77,"x_max":781,"ha":855,"o":"m 781 411 l 781 350 l 207 350 q 284 153 215 221 q 478 86 354 86 q 617 103 550 86 q 752 157 685 121 l 752 39 q 614 -4 684 10 q 471 -20 543 -20 q 183 85 289 -20 q 77 372 77 191 q 177 668 77 558 q 449 778 278 778 q 691 679 602 778 q 781 411 781 580 m 656 448 q 598 611 654 550 q 450 672 542 672 q 283 613 346 672 q 211 447 220 554 l 656 448 "},"Ã":{"x_min":11,"x_max":939,"ha":950,"o":"m 475 878 l 289 374 l 661 374 l 475 878 m 397 1013 l 553 1013 l 939 0 l 796 0 l 704 260 l 247 260 l 155 0 l 11 0 l 397 1013 m 472 1160 l 433 1182 q 406 1196 416 1192 q 387 1200 395 1200 q 349 1182 363 1200 q 336 1135 336 1165 l 336 1131 l 251 1131 q 285 1239 251 1199 q 379 1280 320 1280 q 424 1274 403 1280 q 477 1250 445 1269 l 516 1230 q 543 1217 531 1221 q 565 1213 555 1213 q 600 1230 586 1213 q 614 1275 614 1247 l 614 1280 l 699 1280 q 662 1171 697 1211 q 570 1131 627 1131 q 527 1136 547 1131 q 472 1160 507 1141 "},"J":{"x_min":-72,"x_max":273,"ha":410,"o":"m 136 1013 l 273 1013 l 273 70 q 203 -195 273 -112 q -19 -278 134 -278 l -72 -278 l -72 -163 l -29 -163 q 98 -112 61 -163 q 136 70 136 -61 l 136 1013 "},"»":{"x_min":131,"x_max":743,"ha":850,"o":"m 131 718 l 449 434 l 449 378 l 131 95 l 131 224 l 334 406 l 131 588 l 131 718 m 425 718 l 743 434 l 743 378 l 425 95 l 425 224 l 629 406 l 425 588 l 425 718 "},"ꙮ":{"x_min":39.34375,"x_max":1181.46875,"ha":1221,"o":"m 744 14 l 835 14 l 835 -90 l 744 -90 l 744 14 m 385 14 l 476 14 l 476 -90 l 385 -90 l 385 14 m 744 826 l 835 826 l 835 720 l 744 720 l 744 826 m 385 826 l 476 826 l 476 720 l 385 720 l 385 826 m 206 421 l 297 421 l 297 315 l 206 315 l 206 421 m 924 421 l 1015 421 l 1015 315 l 924 315 l 924 421 m 348 503 q 252 552 313 552 q 155 503 191 552 q 120 372 120 455 q 155 240 120 288 q 252 191 191 191 q 348 240 313 191 q 383 372 383 288 q 348 503 383 455 m 527 909 q 431 957 492 957 q 334 909 370 957 q 299 777 299 860 q 334 645 299 693 q 431 597 370 597 q 527 645 492 597 q 562 777 562 693 q 527 909 562 860 m 886 909 q 790 957 851 957 q 693 909 729 957 q 657 777 657 860 q 693 645 657 693 q 790 597 729 597 q 886 645 851 597 q 921 777 921 693 q 886 909 921 860 m 1066 503 q 969 552 1030 552 q 873 503 908 552 q 837 372 837 455 q 873 240 837 288 q 969 191 908 191 q 1066 240 1030 191 q 1101 372 1101 288 q 1066 503 1101 455 m 706 503 q 610 552 671 552 q 513 503 549 552 q 478 372 478 455 q 513 240 478 288 q 610 191 549 191 q 706 240 671 191 q 741 372 741 288 q 706 503 741 455 m 527 97 q 431 145 492 145 q 334 97 370 145 q 299 -34 299 49 q 334 -166 299 -118 q 431 -214 370 -214 q 527 -166 492 -214 q 562 -34 562 -118 q 527 97 562 49 m 886 97 q 790 145 851 145 q 693 97 729 145 q 657 -34 657 49 q 693 -166 657 -118 q 790 -214 729 -214 q 886 -166 851 -214 q 921 -34 921 -118 q 886 97 921 49 m 969 626 q 1123 556 1065 626 q 1181 370 1181 487 q 1123 187 1181 256 q 969 118 1065 118 l 967 118 q 1002 -34 1002 55 q 944 -219 1002 -150 q 789 -288 886 -288 q 635 -220 693 -288 q 610 -182 620 -202 q 585 -219 600 -202 q 431 -288 528 -288 q 277 -219 334 -288 q 219 -34 219 -151 q 254 118 219 55 q 252 118 252 118 q 97 186 155 118 q 39 370 39 255 q 97 556 39 487 q 252 626 155 626 l 253 626 q 219 777 219 687 q 277 962 219 893 q 431 1031 334 1031 q 585 963 528 1031 q 610 925 600 945 q 635 963 620 945 q 789 1031 693 1031 q 944 962 886 1031 q 1002 777 1002 893 q 967 626 1002 687 l 969 626 m 564 421 l 655 421 l 655 315 l 564 315 l 564 421 "},"₨":{"x_min":136.328125,"x_max":1423.59375,"ha":1491,"o":"m 273 900 l 273 540 l 445 540 q 595 586 544 540 q 645 720 645 632 q 595 854 645 809 q 445 900 544 900 l 273 900 m 922 4 l 925 0 l 777 0 l 648 259 q 551 394 598 361 q 422 427 503 427 l 273 427 l 273 0 l 136 0 l 136 1012 l 445 1012 q 704 940 619 1012 q 790 720 790 867 q 745 562 790 625 q 616 474 701 499 q 702 411 660 459 q 786 276 744 362 l 847 154 q 979 103 914 120 q 1112 84 1046 84 q 1247 114 1200 84 q 1295 200 1295 145 q 1261 278 1295 250 q 1110 330 1226 305 l 1067 340 q 900 415 951 364 q 848 554 848 465 q 924 719 848 661 q 1140 777 1000 777 q 1270 767 1209 777 q 1382 737 1331 757 l 1382 619 q 1273 659 1330 646 q 1155 673 1216 673 q 1015 644 1062 673 q 969 559 969 616 q 1002 491 969 516 q 1136 444 1035 466 l 1178 434 q 1367 354 1311 406 q 1423 209 1423 302 q 1339 42 1423 103 q 1109 -19 1256 -19 q 982 -7 1048 -19 q 922 4 952 -2 "},"₪":{"x_min":64.4375,"x_max":1031.578125,"ha":1089,"o":"m 64 1010 l 416 1012 q 678 911 589 1012 q 767 612 767 810 l 767 363 l 642 363 l 642 595 q 589 829 642 758 q 416 901 535 901 l 189 901 l 189 -19 l 64 -19 l 64 1010 m 1028 -19 l 679 -19 q 417 81 506 -19 q 328 380 328 182 l 328 629 l 453 629 l 453 397 q 506 163 453 234 q 679 91 560 91 l 909 91 l 906 1012 l 1031 1012 l 1028 -19 "},"Ꙭ":{"x_min":78,"x_max":1808.140625,"ha":1886,"o":"m 547 1030 q 887 888 760 1030 q 943 811 919 852 q 998 888 967 852 q 1340 1030 1126 1030 q 1680 888 1553 1030 q 1808 505 1808 745 q 1680 123 1808 265 q 1340 -19 1553 -19 q 998 122 1126 -19 q 942 199 967 158 q 887 123 918 158 q 547 -19 760 -19 q 205 122 333 -19 q 78 505 78 265 q 205 888 78 745 q 547 1030 333 1030 m 783 808 q 547 919 696 919 q 310 808 398 919 q 222 505 222 697 q 310 202 222 314 q 547 91 398 91 q 783 202 696 91 q 870 505 870 314 q 783 808 870 697 m 1576 808 q 1340 919 1489 919 q 1103 808 1190 919 q 1015 505 1015 697 q 1103 202 1015 314 q 1340 91 1190 91 q 1576 202 1489 91 q 1663 505 1663 314 q 1576 808 1663 697 m 1268 568 l 1411 568 l 1411 396 l 1268 396 l 1268 568 m 476 568 l 619 568 l 619 396 l 476 396 l 476 568 "},"©":{"x_min":192,"x_max":1197,"ha":1389,"o":"m 694 1007 q 886 969 797 1007 q 1049 858 975 932 q 1160 695 1123 784 q 1197 502 1197 606 q 1160 310 1197 399 q 1049 148 1123 222 q 886 37 975 74 q 694 0 797 0 q 502 37 591 0 q 339 148 413 74 q 228 310 265 222 q 192 502 192 399 q 228 695 192 606 q 339 858 265 784 q 502 969 413 932 q 694 1007 591 1007 m 694 937 q 529 905 605 937 q 388 809 452 873 q 292 668 325 745 q 260 502 260 590 q 292 337 260 414 q 388 197 325 260 q 529 101 452 133 q 694 69 605 69 q 861 101 784 69 q 1001 197 938 133 q 1096 336 1064 260 q 1128 502 1128 413 q 1096 669 1128 592 q 1001 809 1064 746 q 861 905 938 873 q 694 937 784 937 m 897 771 l 897 684 q 808 716 852 705 q 719 727 764 727 q 562 667 618 727 q 506 502 506 608 q 563 335 506 394 q 726 277 621 277 q 811 287 769 277 q 897 321 852 297 l 897 235 q 805 205 851 215 q 711 196 758 196 q 480 278 565 196 q 395 502 395 361 q 480 725 395 643 q 711 808 565 808 q 806 798 760 808 q 897 771 852 789 "},"ò":{"x_min":77,"x_max":774,"ha":850,"o":"m 425 672 q 267 593 325 672 q 209 379 209 515 q 266 164 209 242 q 425 86 324 86 q 583 164 525 86 q 642 379 642 243 q 583 592 642 513 q 425 672 525 672 m 425 778 q 681 672 588 778 q 774 379 774 566 q 681 86 774 192 q 425 -20 588 -20 q 169 86 262 -20 q 77 379 77 192 q 169 672 77 566 q 425 778 262 778 m 326 1111 l 518 857 l 414 857 l 193 1111 l 326 1111 "},"Ꙫ":{"x_min":78,"x_max":1110.25,"ha":1188,"o":"m 380 568 l 523 568 l 523 396 l 380 396 l 380 568 m 665 568 l 808 568 l 808 396 l 665 396 l 665 568 m 969 122 q 594 -19 828 -19 q 218 122 359 -19 q 78 505 78 265 q 218 888 78 745 q 594 1030 359 1030 q 969 888 828 1030 q 1110 505 1110 745 q 969 122 1110 265 m 855 808 q 593 919 758 919 q 330 808 428 919 q 233 505 233 697 q 330 202 233 314 q 593 91 428 91 q 855 202 758 91 q 953 505 953 314 q 855 808 953 697 "},"^":{"x_min":147,"x_max":1016,"ha":1164,"o":"m 647 1013 l 1016 635 l 879 635 l 581 903 l 283 635 l 147 635 l 515 1013 l 647 1013 "},"«":{"x_min":107,"x_max":719,"ha":850,"o":"m 719 718 l 719 588 l 515 406 l 719 224 l 719 95 l 401 378 l 401 434 l 719 718 m 425 718 l 425 588 l 220 406 l 425 224 l 425 95 l 107 378 l 107 434 l 425 718 "},"D":{"x_min":136,"x_max":987,"ha":1070,"o":"m 273 900 l 273 113 l 438 113 q 745 207 648 113 q 843 507 843 302 q 745 805 843 710 q 438 900 648 900 l 273 900 m 136 1013 l 417 1013 q 849 890 711 1013 q 987 507 987 768 q 848 122 987 245 q 417 0 710 0 l 136 0 l 136 1013 "},"ꙥ":{"x_min":51.546875,"x_max":1183.5,"ha":1251,"o":"m 51 0 l 51 103 q 212 208 178 123 q 259 635 259 320 l 259 759 l 1183 759 l 1183 659 l 773 659 l 773 0 l 772 0 l 647 0 l 647 659 l 383 659 l 383 584 q 324 160 383 291 q 51 0 260 19 "},"₰":{"x_min":31.203125,"x_max":790.8125,"ha":884,"o":"m 125 349 l 31 415 q 206 577 130 577 q 333 524 290 577 q 416 452 393 452 q 486 497 448 452 q 332 789 332 617 q 386 965 332 906 q 539 1030 446 1030 q 683 965 617 1030 q 740 789 740 909 q 668 519 740 635 q 790 279 790 408 q 705 56 790 147 q 462 -19 633 -19 l 462 90 q 615 140 553 90 q 664 280 664 181 q 583 417 664 340 q 417 332 491 332 q 290 402 340 332 q 220 450 256 450 q 125 349 185 450 m 565 597 q 611 789 611 670 q 593 881 611 847 q 535 923 569 923 q 478 881 500 923 q 461 789 461 848 q 565 597 461 676 "},"ÿ":{"x_min":41,"x_max":780,"ha":822,"o":"m 446 -70 q 343 -247 393 -206 q 209 -289 293 -289 l 110 -289 l 110 -185 l 183 -185 q 263 -160 234 -185 q 326 -44 291 -136 l 348 12 l 41 760 l 173 760 l 410 165 l 647 760 l 780 760 l 446 -70 m 475 1053 l 613 1053 l 613 916 l 475 916 l 475 1053 m 209 1053 l 347 1053 l 347 916 l 209 916 l 209 1053 "},"í":{"x_min":97,"x_max":422,"ha":386,"o":"m 286 1111 l 422 1111 l 200 856 l 97 856 l 286 1111 m 131 760 l 256 760 l 256 0 l 131 0 l 131 760 m 193 778 l 193 778 "},"w":{"x_min":58,"x_max":1077,"ha":1136,"o":"m 58 760 l 182 760 l 338 166 l 493 760 l 641 760 l 797 166 l 952 760 l 1077 760 l 878 0 l 731 0 l 567 622 l 403 0 l 256 0 l 58 760 "},"$":{"x_min":115,"x_max":768,"ha":884,"o":"m 469 -204 l 401 -204 l 400 0 q 258 16 329 1 q 115 62 186 31 l 115 184 q 254 118 184 140 q 401 95 325 96 l 401 405 q 183 488 251 429 q 115 648 115 546 q 188 822 115 758 q 401 896 262 886 l 401 1055 l 469 1055 l 469 898 q 590 884 531 895 q 706 856 649 874 l 706 737 q 590 781 649 765 q 469 800 531 797 l 469 509 q 695 424 622 485 q 768 258 768 363 q 691 77 768 143 q 469 1 614 11 l 469 -204 m 401 521 l 401 800 q 281 755 322 791 q 240 659 240 719 q 278 568 240 601 q 401 521 316 536 m 469 391 l 469 98 q 599 146 555 109 q 643 245 643 184 q 601 340 643 304 q 469 391 559 375 "},"Ꙩ":{"x_min":78,"x_max":1015,"ha":1093,"o":"m 476 568 l 619 568 l 619 396 l 476 396 l 476 568 m 547 920 q 309 808 397 920 q 222 505 222 697 q 309 202 222 313 q 547 91 397 91 q 783 202 696 91 q 871 505 871 313 q 783 808 871 697 q 547 920 696 920 m 547 1031 q 887 888 760 1031 q 1015 505 1015 745 q 887 122 1015 265 q 547 -20 760 -20 q 205 122 333 -20 q 78 505 78 264 q 205 888 78 745 q 547 1031 333 1031 "},"\\":{"x_min":0,"x_max":468,"ha":468,"o":"m 115 1013 l 468 -128 l 352 -128 l 0 1013 l 115 1013 "},"ꙗ":{"x_min":130.890625,"x_max":1044.46875,"ha":1171,"o":"m 1044 433 l 1044 0 l 919 0 l 919 115 q 813 13 876 46 q 657 -19 749 -19 q 471 45 540 -19 q 402 221 402 111 q 434 353 402 299 l 255 353 l 255 0 l 130 0 l 130 759 l 255 759 l 255 456 l 571 456 q 744 479 643 479 l 919 479 l 919 491 q 863 624 919 577 q 704 672 806 672 q 577 656 638 672 q 458 609 515 640 l 458 725 q 591 764 526 751 q 716 777 655 777 q 963 692 881 777 q 1044 433 1044 607 m 795 381 q 585 347 644 381 q 527 229 527 312 q 571 123 527 162 q 690 84 615 84 q 856 158 794 84 q 919 354 919 231 l 919 381 l 795 381 "},"Ì":{"x_min":40,"x_max":299.765625,"ha":410,"o":"m 136 1013 l 273 1013 l 273 0 l 136 0 l 136 1013 m 166 1288 l 299 1109 l 196 1109 l 40 1288 l 166 1288 "},"µ":{"x_min":118,"x_max":850,"ha":884,"o":"m 118 -289 l 118 760 l 243 760 l 243 287 q 289 139 243 189 q 427 89 336 89 q 578 145 528 89 q 629 316 629 202 l 629 760 l 754 760 l 754 174 q 765 114 754 133 q 803 95 777 95 q 820 98 809 95 q 850 111 830 102 l 850 10 q 797 -12 822 -5 q 748 -20 772 -20 q 673 6 701 -20 q 635 87 646 33 q 552 6 601 33 q 437 -20 503 -20 q 319 6 368 -20 q 243 86 271 33 l 243 -289 l 118 -289 "},"Ç":{"x_min":78,"x_max":895,"ha":970,"o":"m 895 935 l 895 791 q 747 886 825 854 q 580 918 668 918 q 314 811 406 918 q 222 505 222 705 q 314 199 222 305 q 580 93 406 93 q 747 124 668 93 q 895 221 825 156 l 895 78 q 742 4 823 29 q 572 -20 662 -20 q 210 120 342 -20 q 78 505 78 261 q 210 890 78 749 q 572 1031 342 1031 q 744 1007 663 1031 q 895 935 824 983 m 608 0 q 663 -77 645 -42 q 682 -145 682 -113 q 641 -237 682 -206 q 520 -268 600 -268 q 459 -263 489 -268 q 401 -251 430 -259 l 401 -163 q 449 -179 424 -174 q 506 -185 474 -185 q 566 -168 546 -185 q 587 -121 587 -152 q 572 -71 587 -100 q 527 0 557 -41 l 608 0 "},"-":{"x_min":68,"x_max":434,"ha":501,"o":"m 68 436 l 434 436 l 434 325 l 68 325 l 68 436 "},"ꙑ":{"x_min":42,"x_max":1136,"ha":1259,"o":"m 596 450 q 820 394 742 450 q 899 225 899 339 q 820 55 899 111 q 597 0 742 0 l 288 0 l 288 660 l 42 660 l 42 760 l 413 760 l 413 450 l 596 450 m 591 350 l 413 350 l 413 100 l 591 100 q 721 132 677 100 q 766 225 766 164 q 721 318 766 286 q 591 350 677 350 m 1011 760 l 1136 760 l 1136 0 l 1011 0 l 1011 760 m 1073 778 l 1073 778 "},"Q":{"x_min":78,"x_max":1015,"ha":1093,"o":"m 547 920 q 309 808 397 920 q 222 505 222 697 q 309 202 222 313 q 547 91 397 91 q 783 202 696 91 q 871 505 871 313 q 783 808 871 697 q 547 920 696 920 m 739 17 l 919 -179 l 754 -179 l 604 -17 q 569 -19 581 -18 q 547 -20 558 -20 q 205 122 333 -20 q 78 505 78 265 q 205 888 78 745 q 547 1031 333 1031 q 887 888 760 1031 q 1015 505 1015 745 q 944 203 1015 328 q 739 17 873 77 "},"M":{"x_min":136,"x_max":1062,"ha":1198,"o":"m 136 1013 l 340 1013 l 598 323 l 857 1013 l 1062 1013 l 1062 0 l 928 0 l 928 889 l 667 195 l 529 195 l 269 889 l 269 0 l 136 0 l 136 1013 "},"C":{"x_min":78,"x_max":895,"ha":970,"o":"m 895 935 l 895 791 q 747 886 825 854 q 580 918 668 918 q 314 811 406 918 q 222 505 222 705 q 314 199 222 305 q 580 93 406 93 q 747 124 668 93 q 895 221 825 156 l 895 78 q 742 4 823 29 q 572 -20 662 -20 q 210 120 342 -20 q 78 505 78 261 q 210 890 78 749 q 572 1031 342 1031 q 744 1007 663 1031 q 895 935 824 983 "},"ꚋ":{"x_min":40.6875,"x_max":916.953125,"ha":951,"o":"m 40 759 l 768 759 l 768 659 l 465 659 l 465 427 l 635 427 q 861 379 813 427 q 916 169 916 324 l 916 -13 q 861 -223 916 -158 q 683 -288 806 -288 l 552 -288 l 552 -183 l 669 -183 q 766 -150 744 -183 q 792 -13 792 -113 l 792 165 q 766 302 792 278 q 642 330 736 330 l 465 330 l 465 0 l 343 0 l 343 659 l 40 659 l 40 759 "},"!":{"x_min":210,"x_max":348,"ha":557,"o":"m 210 172 l 348 172 l 348 0 l 210 0 l 210 172 m 210 1013 l 348 1013 l 348 568 l 334 326 l 224 326 l 210 568 l 210 1013 "},"ç":{"x_min":77,"x_max":678,"ha":764,"o":"m 678 731 l 678 614 q 571 657 625 643 q 464 672 518 672 q 276 595 343 672 q 209 379 209 518 q 276 162 209 239 q 464 86 343 86 q 571 100 518 86 q 678 144 625 115 l 678 29 q 569 -7 625 4 q 450 -20 513 -20 q 178 87 279 -20 q 77 379 77 195 q 179 671 77 564 q 458 778 281 778 q 571 766 516 778 q 678 731 626 754 m 501 0 q 556 -77 538 -42 q 575 -145 575 -113 q 534 -237 575 -206 q 413 -268 493 -268 q 352 -263 382 -268 q 294 -251 323 -259 l 294 -163 q 342 -179 317 -174 q 399 -185 367 -185 q 459 -168 439 -185 q 480 -121 480 -152 q 465 -71 480 -100 q 420 0 450 -41 l 501 0 "},"È":{"x_min":136,"x_max":788,"ha":878,"o":"m 136 1013 l 776 1013 l 776 898 l 273 898 l 273 598 l 755 598 l 755 483 l 273 483 l 273 115 l 788 115 l 788 0 l 136 0 l 136 1013 m 415 1288 l 548 1109 l 445 1109 l 289 1288 l 415 1288 "},"{":{"x_min":174,"x_max":710,"ha":884,"o":"m 710 -129 l 710 -227 l 667 -227 q 442 -176 499 -227 q 385 23 385 -126 l 385 185 q 348 327 385 288 q 215 367 311 367 l 174 367 l 174 464 l 215 464 q 348 502 312 464 q 385 642 385 541 l 385 805 q 442 1005 385 955 q 667 1055 499 1055 l 710 1055 l 710 958 l 663 958 q 539 928 568 958 q 510 802 510 898 l 510 634 q 479 480 510 528 q 374 415 448 432 q 479 348 449 396 q 510 194 510 300 l 510 26 q 539 -99 510 -69 q 663 -129 568 -129 l 710 -129 "},"X":{"x_min":41,"x_max":908,"ha":951,"o":"m 87 1013 l 234 1013 l 485 636 l 738 1013 l 886 1013 l 560 526 l 908 0 l 760 0 l 475 430 l 188 0 l 41 0 l 402 540 l 87 1013 "},"ô":{"x_min":77,"x_max":774,"ha":850,"o":"m 425 672 q 267 593 325 672 q 209 379 209 515 q 266 164 209 242 q 425 86 324 86 q 583 164 525 86 q 642 379 642 243 q 583 592 642 513 q 425 672 525 672 m 425 778 q 681 672 588 778 q 774 379 774 566 q 681 86 774 192 q 425 -20 588 -20 q 169 86 262 -20 q 77 379 77 192 q 169 672 77 566 q 425 778 262 778 m 375 1111 l 475 1111 l 642 856 l 547 856 l 425 1022 l 303 856 l 209 856 l 375 1111 "},"¼":{"x_min":93,"x_max":1302,"ha":1346,"o":"m 106 528 l 244 528 l 244 942 l 93 914 l 93 993 l 249 1019 l 342 1019 l 342 528 l 481 528 l 481 453 l 106 453 l 106 528 m 1112 483 l 903 200 l 1112 200 l 1112 483 m 1097 566 l 1210 566 l 1210 200 l 1302 200 l 1302 126 l 1210 126 l 1210 0 l 1112 0 l 1112 126 l 832 126 l 832 208 l 1097 566 m 935 1031 l 1044 1031 l 411 -20 l 303 -20 l 935 1031 "},"#":{"x_min":107,"x_max":1057,"ha":1164,"o":"m 709 612 l 512 612 l 455 385 l 654 385 l 709 612 m 608 997 l 537 716 l 735 716 l 806 997 l 915 997 l 845 716 l 1057 716 l 1057 612 l 818 612 l 763 385 l 979 385 l 979 281 l 736 281 l 666 0 l 557 0 l 627 281 l 429 281 l 359 0 l 250 0 l 320 281 l 107 281 l 107 385 l 345 385 l 402 612 l 184 612 l 184 716 l 429 716 l 498 997 l 608 997 "},"Ê":{"x_min":136,"x_max":788,"ha":878,"o":"m 136 1013 l 776 1013 l 776 898 l 273 898 l 273 598 l 755 598 l 755 483 l 273 483 l 273 115 l 788 115 l 788 0 l 136 0 l 136 1013 m 391 1289 l 518 1289 l 662 1109 l 567 1109 l 455 1229 l 342 1109 l 248 1109 l 391 1289 "},")":{"x_min":111,"x_max":422,"ha":542,"o":"m 111 1054 l 219 1054 q 371 740 321 893 q 422 436 422 587 q 371 130 422 284 q 219 -183 321 -23 l 111 -183 q 245 125 201 -27 q 290 436 290 279 q 245 745 290 592 q 111 1054 201 898 "},"Ꙕ":{"x_min":78,"x_max":1356.453125,"ha":1500,"o":"m 783 808 q 545 919 695 919 q 309 808 396 919 q 222 505 222 697 q 309 202 222 314 q 545 91 396 91 q 783 202 695 91 q 870 505 870 314 q 783 808 870 697 m 1013 563 l 1219 563 l 1219 1012 l 1356 1012 l 1356 0 l 1219 0 l 1219 448 l 1013 448 q 881 119 1003 258 q 545 -19 759 -19 q 205 123 333 -19 q 78 505 78 265 q 205 888 78 745 q 545 1030 333 1030 q 881 892 759 1030 q 1013 563 1003 753 "},"Å":{"x_min":11,"x_max":939,"ha":950,"o":"m 579 1102 q 548 1175 579 1145 q 475 1206 518 1206 q 401 1176 431 1206 q 372 1102 372 1146 q 402 1029 372 1059 q 475 1000 432 1000 q 548 1029 518 1000 q 579 1102 579 1059 m 475 877 l 290 374 l 660 374 l 475 877 m 372 947 q 309 1013 330 974 q 289 1102 289 1052 q 343 1234 289 1180 q 475 1289 397 1289 q 607 1234 552 1289 q 662 1102 662 1179 q 640 1014 662 1055 q 579 947 619 974 l 939 0 l 796 0 l 704 260 l 247 260 l 155 0 l 11 0 l 372 947 "},"ø":{"x_min":49.0625,"x_max":800.453125,"ha":850,"o":"m 614 543 l 284 141 q 346 99 312 113 q 425 86 381 86 q 583 164 525 86 q 642 379 642 243 q 635 472 642 432 q 614 543 628 511 m 566 616 q 502 658 537 644 q 425 672 467 672 q 266 592 323 672 q 209 369 209 512 q 215 283 209 320 q 235 214 221 246 l 566 616 m 150 112 q 95 231 113 164 q 77 379 77 298 q 169 672 77 566 q 425 778 262 778 q 542 760 488 778 q 642 708 596 743 l 736 822 l 800 768 l 701 646 q 755 527 737 594 q 774 378 774 460 q 681 86 774 192 q 425 -20 588 -20 q 306 -2 360 -20 q 209 49 251 15 l 114 -64 l 49 -11 l 150 112 "},"â":{"x_min":83,"x_max":725,"ha":851,"o":"m 475 382 q 266 347 324 382 q 208 228 208 312 q 251 123 208 162 q 370 84 295 84 q 537 157 474 84 q 600 354 600 231 l 600 382 l 475 382 m 725 433 l 725 0 l 600 0 l 600 115 q 493 12 557 45 q 337 -20 429 -20 q 151 45 220 -20 q 83 221 83 111 q 168 414 83 349 q 425 480 254 480 l 600 480 l 600 492 q 543 625 600 578 q 384 672 486 672 q 257 656 319 672 q 139 610 195 641 l 139 725 q 271 764 207 751 q 397 778 336 778 q 643 692 562 778 q 725 433 725 607 m 353 1111 l 454 1111 l 620 856 l 525 856 l 404 1022 l 282 856 l 188 856 l 353 1111 "},"}":{"x_min":174,"x_max":711,"ha":884,"o":"m 174 -129 l 221 -129 q 345 -99 316 -129 q 374 26 374 -70 l 374 194 q 404 348 374 300 q 510 415 435 396 q 404 480 435 432 q 374 634 374 528 l 374 802 q 345 928 374 899 q 221 958 316 958 l 174 958 l 174 1055 l 216 1055 q 442 1005 385 1055 q 499 805 499 955 l 499 642 q 535 502 499 541 q 668 464 572 464 l 711 464 l 711 367 l 668 367 q 535 327 572 367 q 499 185 499 288 l 499 23 q 442 -176 499 -126 q 216 -227 385 -227 l 174 -227 l 174 -129 "},"Ä":{"x_min":11,"x_max":939,"ha":950,"o":"m 475 878 l 289 374 l 661 374 l 475 878 m 397 1013 l 553 1013 l 939 0 l 796 0 l 704 260 l 247 260 l 155 0 l 11 0 l 397 1013 m 539 1269 l 677 1269 l 677 1131 l 539 1131 l 539 1269 m 273 1269 l 411 1269 l 411 1131 l 273 1131 l 273 1269 "},"Ꙥ":{"x_min":56.96875,"x_max":1400.53125,"ha":1481,"o":"m 56 0 l 56 115 q 246 258 206 147 q 305 840 305 425 l 305 1012 l 1400 1012 l 1400 897 l 907 897 l 907 0 l 770 0 l 770 897 l 441 897 l 441 772 q 372 209 441 388 q 56 0 305 37 "},"¸":{"x_min":197,"x_max":478,"ha":695,"o":"m 404 0 q 459 -77 441 -42 q 478 -145 478 -113 q 437 -237 478 -206 q 316 -268 396 -268 q 255 -263 285 -268 q 197 -251 226 -259 l 197 -163 q 245 -179 220 -174 q 302 -185 270 -185 q 362 -168 342 -185 q 383 -121 383 -152 q 368 -71 383 -100 q 323 0 353 -41 l 404 0 "},"a":{"x_min":83,"x_max":725,"ha":851,"o":"m 475 382 q 266 347 324 382 q 208 228 208 312 q 251 123 208 162 q 370 84 295 84 q 537 157 474 84 q 600 354 600 231 l 600 382 l 475 382 m 725 433 l 725 0 l 600 0 l 600 115 q 493 12 557 45 q 337 -20 429 -20 q 151 45 220 -20 q 83 221 83 111 q 168 414 83 349 q 425 480 254 480 l 600 480 l 600 492 q 543 625 600 578 q 384 672 486 672 q 257 656 319 672 q 139 610 195 641 l 139 725 q 271 764 207 751 q 397 778 336 778 q 643 692 562 778 q 725 433 725 607 "},"=":{"x_min":147,"x_max":1016,"ha":1164,"o":"m 147 631 l 1016 631 l 1016 517 l 147 517 l 147 631 m 147 354 l 1016 354 l 1016 239 l 147 239 l 147 354 "},"N":{"x_min":136,"x_max":902,"ha":1039,"o":"m 136 1013 l 320 1013 l 769 165 l 769 1013 l 902 1013 l 902 0 l 717 0 l 269 847 l 269 0 l 136 0 l 136 1013 "},"ꙕ":{"x_min":75.96875,"x_max":1038.359375,"ha":1169,"o":"m 424 672 q 266 593 324 672 q 208 379 208 514 q 266 164 208 243 q 424 86 324 86 q 583 164 525 86 q 641 379 641 242 q 583 593 641 515 q 424 672 524 672 m 769 456 l 913 456 l 913 759 l 1038 759 l 1038 0 l 913 0 l 913 353 l 772 353 q 677 82 766 185 q 424 -19 588 -19 q 168 86 261 -19 q 75 379 75 192 q 168 672 75 566 q 424 777 261 777 q 671 681 587 777 q 769 456 756 585 "},"ú":{"x_min":118,"x_max":754,"ha":880,"o":"m 118 299 l 118 760 l 243 760 l 243 304 q 284 142 243 196 q 410 89 326 89 q 570 153 511 89 q 629 328 629 217 l 629 760 l 754 760 l 754 0 l 629 0 l 629 116 q 523 13 583 46 q 384 -20 463 -20 q 185 61 253 -20 q 118 299 118 142 m 431 778 l 431 778 m 523 1111 l 659 1111 l 437 856 l 334 856 l 523 1111 "},"2":{"x_min":102,"x_max":745.421875,"ha":884,"o":"m 267 115 l 745 115 l 745 0 l 102 0 l 102 115 q 314 331 180 195 q 483 507 449 467 q 575 632 549 581 q 602 733 602 683 q 545 865 602 814 q 397 916 488 916 q 261 893 333 916 q 109 826 190 871 l 109 964 q 263 1014 191 997 q 395 1031 335 1031 q 646 952 552 1031 q 740 741 740 873 q 716 623 740 679 q 631 491 693 567 q 523 377 614 471 q 267 115 432 283 "},"ü":{"x_min":118,"x_max":754,"ha":880,"o":"m 118 299 l 118 760 l 243 760 l 243 304 q 284 142 243 196 q 410 89 326 89 q 570 153 511 89 q 629 328 629 217 l 629 760 l 754 760 l 754 0 l 629 0 l 629 116 q 523 13 583 46 q 384 -20 463 -20 q 185 61 253 -20 q 118 299 118 142 m 431 778 l 431 778 m 500 1053 l 638 1053 l 638 916 l 500 916 l 500 1053 m 234 1053 l 372 1053 l 372 916 l 234 916 l 234 1053 "},"¯":{"x_min":144,"x_max":550,"ha":695,"o":"m 144 1035 l 550 1035 l 550 935 l 144 935 l 144 1035 "},"Z":{"x_min":62,"x_max":889,"ha":952,"o":"m 78 1013 l 873 1013 l 873 908 l 233 115 l 889 115 l 889 0 l 62 0 l 62 104 l 702 898 l 78 898 l 78 1013 "},"u":{"x_min":118,"x_max":754,"ha":880,"o":"m 118 299 l 118 760 l 243 760 l 243 304 q 284 142 243 196 q 410 89 326 89 q 570 153 511 89 q 629 328 629 217 l 629 760 l 754 760 l 754 0 l 629 0 l 629 116 q 523 13 583 46 q 384 -20 463 -20 q 185 61 253 -20 q 118 299 118 142 m 431 778 l 431 778 "},"Ó":{"x_min":78,"x_max":1015,"ha":1093,"o":"m 547 920 q 309 808 397 920 q 222 505 222 697 q 309 202 222 313 q 547 91 397 91 q 783 202 696 91 q 871 505 871 313 q 783 808 871 697 q 547 920 696 920 m 547 1031 q 887 888 760 1031 q 1015 505 1015 745 q 887 122 1015 265 q 547 -20 760 -20 q 205 122 333 -20 q 78 505 78 264 q 205 888 78 745 q 547 1031 333 1031 m 584 1288 l 710 1288 l 555 1109 l 452 1109 l 584 1288 "},"k":{"x_min":126,"x_max":800,"ha":804,"o":"m 126 1055 l 251 1055 l 251 432 l 623 760 l 783 760 l 379 404 l 800 0 l 637 0 l 251 371 l 251 0 l 126 0 l 126 1055 "},"₯":{"x_min":141.078125,"x_max":1673.859375,"ha":1767,"o":"m 1220 -308 l 1095 -280 l 1205 207 q 1270 381 1228 309 q 1354 473 1303 436 q 1471 510 1405 510 q 1562 491 1521 510 q 1629 436 1604 471 q 1673 278 1673 377 q 1641 129 1673 197 q 1553 22 1608 59 q 1432 -20 1491 -20 q 1353 1 1395 -20 q 1300 50 1321 16 l 1220 -308 m 1468 392 q 1376 320 1409 392 q 1357 265 1367 303 q 1350 200 1350 242 q 1365 137 1350 164 q 1429 101 1387 101 q 1474 113 1454 101 q 1511 147 1494 125 q 1537 202 1524 165 q 1549 274 1549 236 q 1529 363 1549 331 q 1504 385 1521 377 q 1468 392 1491 392 m 401 268 q 417 329 409 295 l 539 902 q 486 882 507 895 q 446 845 462 867 q 420 786 432 825 l 302 822 q 354 920 320 878 q 433 987 387 963 q 632 1030 514 1030 q 872 989 770 1030 q 1038 873 974 947 q 1123 724 1096 807 q 1151 553 1151 640 q 1132 381 1151 476 q 1070 208 1115 293 q 1013 122 1045 161 q 938 51 980 83 q 841 0 892 16 q 725 -19 776 -19 q 652 -13 683 -19 q 584 8 617 -6 q 529 36 551 23 q 476 69 486 62 l 465 75 q 439 37 453 52 q 324 -19 386 -19 q 193 24 244 -19 q 141 134 141 69 q 185 242 141 197 q 301 287 230 287 q 401 268 351 287 m 679 907 l 559 318 q 528 190 542 233 l 555 172 q 646 119 611 134 q 720 102 685 102 q 846 147 794 102 q 937 267 898 193 q 986 410 967 323 q 1002 550 1002 482 q 982 680 1002 617 q 923 792 961 746 q 679 907 833 897 m 360 138 q 301 161 333 161 q 266 151 276 161 q 257 132 257 142 q 273 105 257 115 q 310 96 288 96 q 360 138 341 96 "},"Ù":{"x_min":121,"x_max":896,"ha":1017,"o":"m 121 1013 l 259 1013 l 259 397 q 317 162 259 234 q 508 91 376 91 q 699 162 640 91 q 758 397 758 234 l 758 1013 l 896 1013 l 896 380 q 798 81 896 182 q 508 -20 700 -20 q 218 81 316 -20 q 121 380 121 182 l 121 1013 m 469 1288 l 602 1109 l 499 1109 l 343 1288 l 469 1288 "},"€":{"x_min":0,"x_max":792,"ha":884,"o":"m 792 935 l 792 791 q 672 891 730 861 q 546 922 615 922 q 371 854 439 922 q 280 659 302 786 l 672 659 l 634 576 l 270 576 q 268 544 268 559 q 268 504 268 528 q 268 467 268 483 q 270 436 268 452 l 573 436 l 534 353 l 280 353 q 371 157 302 226 q 546 89 439 89 q 672 119 615 89 q 792 221 730 149 l 792 78 q 668 4 731 29 q 540 -20 606 -20 q 275 78 380 -20 q 143 353 170 177 l 0 353 l 37 436 l 131 436 q 131 467 131 451 q 131 504 131 483 q 131 544 131 528 q 131 576 131 560 l 0 576 l 37 659 l 143 659 q 275 932 170 833 q 540 1031 380 1031 q 670 1007 607 1031 q 792 935 732 983 "},"₦":{"x_min":79.359375,"x_max":959.6875,"ha":1039,"o":"m 398 639 l 344 779 l 344 639 l 398 639 m 467 456 l 430 556 l 344 556 l 344 456 l 467 456 m 211 1012 l 396 1012 l 539 639 l 694 639 l 694 1012 l 827 1012 l 827 639 l 959 639 l 959 556 l 827 556 l 827 456 l 959 456 l 959 373 l 827 373 l 827 0 l 642 0 l 499 373 l 344 373 l 344 0 l 211 0 l 211 373 l 79 373 l 79 456 l 211 456 l 211 556 l 79 556 l 79 639 l 211 639 l 211 1012 m 571 556 l 609 456 l 694 456 l 694 556 l 571 556 m 640 373 l 694 233 l 694 373 l 640 373 "},"¢":{"x_min":117,"x_max":719,"ha":884,"o":"m 460 88 l 460 670 q 304 581 360 658 q 249 379 249 504 q 304 177 249 253 q 460 88 360 100 m 719 732 l 719 615 q 622 656 668 642 q 530 673 576 670 l 529 86 q 623 103 576 89 q 719 144 670 117 l 719 29 q 628 -3 674 8 q 530 -19 582 -14 l 530 -212 l 460 -212 l 460 -17 q 206 100 296 -3 q 117 379 117 204 q 206 658 117 554 q 460 777 296 762 l 460 972 l 530 972 l 530 777 q 626 763 580 774 q 719 732 672 752 "},"ß":{"x_min":126,"x_max":811,"ha":875,"o":"m 126 770 q 207 980 126 906 q 436 1055 288 1055 q 651 976 577 1055 q 728 745 725 897 q 568 701 625 740 q 511 596 511 661 q 530 537 511 564 q 595 481 550 510 l 633 456 q 778 336 746 384 q 811 220 811 288 q 734 42 811 104 q 515 -20 658 -20 q 425 -11 471 -20 q 330 13 379 -3 l 330 124 q 431 93 384 103 q 523 84 479 84 q 642 116 601 84 q 683 210 683 148 q 663 281 683 252 q 575 351 643 309 l 512 389 q 417 475 447 429 q 388 582 388 520 q 444 727 388 668 q 605 805 501 785 q 555 913 599 875 q 433 951 510 951 q 299 903 345 951 q 253 767 253 856 l 253 0 l 126 0 l 126 770 "},"é":{"x_min":77,"x_max":781,"ha":855,"o":"m 781 411 l 781 350 l 207 350 q 284 153 215 221 q 478 86 354 86 q 617 103 550 86 q 752 157 685 121 l 752 39 q 614 -4 684 10 q 471 -20 543 -20 q 183 85 289 -20 q 77 372 77 191 q 177 668 77 558 q 449 778 278 778 q 691 679 602 778 q 781 411 781 580 m 656 448 q 598 611 654 550 q 450 672 542 672 q 283 613 346 672 q 211 447 220 554 l 656 448 m 534 1111 l 670 1111 l 448 856 l 345 856 l 534 1111 "},"s":{"x_min":76,"x_max":656,"ha":724,"o":"m 615 738 l 615 620 q 505 660 562 647 q 387 674 448 674 q 248 645 294 674 q 202 559 202 616 q 235 491 202 516 q 368 444 268 466 l 411 434 q 600 354 544 406 q 656 209 656 302 q 572 41 656 103 q 342 -20 488 -20 q 215 -8 281 -20 q 76 27 149 3 l 76 156 q 212 102 145 120 q 345 84 279 84 q 480 114 433 84 q 528 199 528 144 q 493 277 528 250 q 343 330 459 305 l 300 340 q 132 415 184 364 q 81 554 81 465 q 156 719 81 661 q 372 778 232 778 q 502 768 441 778 q 615 738 563 758 "},"B":{"x_min":136,"x_max":854,"ha":953,"o":"m 273 484 l 273 113 l 492 113 q 656 158 603 113 q 710 298 710 204 q 656 438 710 393 q 492 484 603 484 l 273 484 m 273 900 l 273 595 l 475 595 q 624 632 575 595 q 674 747 674 670 q 624 862 674 824 q 475 900 575 900 l 273 900 m 136 1013 l 485 1013 q 727 947 642 1013 q 812 762 812 882 q 768 614 812 669 q 640 546 725 559 q 797 455 741 524 q 854 283 854 386 q 761 73 854 147 q 499 0 669 0 l 136 0 l 136 1013 "},"?":{"x_min":100,"x_max":641,"ha":737,"o":"m 265 172 l 403 172 l 403 0 l 265 0 l 265 172 m 399 272 l 269 272 l 269 376 q 288 489 269 445 q 368 591 307 533 l 429 651 q 485 719 468 687 q 503 784 503 751 q 458 882 503 845 q 340 920 414 920 q 226 896 287 920 q 100 827 165 872 l 100 955 q 229 1012 163 993 q 364 1031 294 1031 q 565 965 489 1031 q 641 791 641 899 q 616 693 641 740 q 530 588 592 647 l 471 530 q 425 480 439 498 q 407 445 412 462 q 401 411 403 431 q 399 355 399 390 l 399 272 "},"H":{"x_min":136,"x_max":908,"ha":1044,"o":"m 136 1013 l 273 1013 l 273 598 l 771 598 l 771 1013 l 908 1013 l 908 0 l 771 0 l 771 483 l 273 483 l 273 0 l 136 0 l 136 1013 "},"î":{"x_min":-23,"x_max":410,"ha":386,"o":"m 131 760 l 256 760 l 256 0 l 131 0 l 131 760 m 193 778 l 193 778 m 143 1111 l 243 1111 l 410 856 l 315 856 l 193 1022 l 71 856 l -23 856 l 143 1111 "},"c":{"x_min":77,"x_max":678,"ha":764,"o":"m 678 731 l 678 614 q 571 657 625 643 q 464 672 518 672 q 276 595 343 672 q 209 379 209 518 q 276 162 209 239 q 464 86 343 86 q 571 100 518 86 q 678 144 625 115 l 678 29 q 569 -7 625 4 q 450 -20 513 -20 q 178 87 279 -20 q 77 379 77 195 q 179 671 77 564 q 458 778 281 778 q 571 766 516 778 q 678 731 626 754 "},"¶":{"x_min":107,"x_max":733,"ha":884,"o":"m 428 1013 l 733 1013 l 733 -134 l 637 -134 l 637 930 l 508 930 l 508 -134 l 412 -134 l 412 440 q 186 526 266 451 q 107 726 107 601 q 195 934 107 855 q 428 1013 283 1013 "},"¥":{"x_min":56,"x_max":827,"ha":884,"o":"m 790 309 l 510 309 l 510 0 l 374 0 l 374 309 l 92 309 l 92 392 l 374 392 l 374 426 l 317 532 l 92 532 l 92 615 l 270 615 l 56 1013 l 184 1013 l 441 538 l 697 1013 l 827 1013 l 611 615 l 790 615 l 790 532 l 565 532 l 508 426 l 508 392 l 790 392 l 790 309 "},"(":{"x_min":119,"x_max":430,"ha":542,"o":"m 430 1054 q 295 745 339 898 q 251 436 251 592 q 295 125 251 279 q 430 -183 339 -27 l 321 -183 q 169 130 219 -23 q 119 436 119 284 q 169 740 119 587 q 321 1054 219 893 l 430 1054 "},"U":{"x_min":121,"x_max":896,"ha":1017,"o":"m 121 1013 l 259 1013 l 259 397 q 317 162 259 234 q 508 91 376 91 q 699 162 640 91 q 758 397 758 234 l 758 1013 l 896 1013 l 896 380 q 798 81 896 182 q 508 -20 700 -20 q 218 81 316 -20 q 121 380 121 182 l 121 1013 "},"₠":{"x_min":58.328125,"x_max":1159.765625,"ha":1218,"o":"m 670 298 q 556 243 617 261 q 429 225 496 225 q 157 330 257 225 q 58 619 58 436 q 157 907 58 802 q 429 1013 257 1013 q 557 995 497 1013 q 670 940 617 977 l 670 832 q 560 904 619 881 q 435 928 501 928 q 236 849 305 928 q 166 619 166 769 q 236 389 166 468 q 435 309 305 309 q 560 333 501 309 q 670 405 619 357 l 670 759 l 1150 759 l 1150 672 l 773 672 l 773 448 l 1135 448 l 1135 361 l 773 361 l 773 86 l 1159 86 l 1159 0 l 670 0 l 670 298 "},"Ñ":{"x_min":136,"x_max":902,"ha":1039,"o":"m 136 1013 l 320 1013 l 769 165 l 769 1013 l 902 1013 l 902 0 l 717 0 l 269 847 l 269 0 l 136 0 l 136 1013 m 516 1160 l 477 1182 q 450 1196 460 1192 q 431 1200 439 1200 q 393 1182 407 1200 q 380 1135 380 1165 l 380 1131 l 295 1131 q 329 1239 295 1199 q 423 1280 364 1280 q 468 1274 447 1280 q 521 1250 489 1269 l 560 1230 q 587 1217 575 1221 q 609 1213 599 1213 q 644 1230 630 1213 q 658 1275 658 1247 l 658 1280 l 743 1280 q 706 1171 741 1211 q 614 1131 671 1131 q 571 1136 591 1131 q 516 1160 551 1141 "},"F":{"x_min":136,"x_max":718,"ha":799,"o":"m 136 1013 l 718 1013 l 718 898 l 273 898 l 273 599 l 675 599 l 675 484 l 273 484 l 273 0 l 136 0 l 136 1013 "},"­":{"x_min":68,"x_max":434,"ha":501,"o":"m 68 436 l 434 436 l 434 325 l 68 325 l 68 436 "},":":{"x_min":163,"x_max":306,"ha":468,"o":"m 163 172 l 306 172 l 306 0 l 163 0 l 163 172 m 163 718 l 306 718 l 306 546 l 163 546 l 163 718 "},"Ꙍ":{"x_min":80,"x_max":1559,"ha":1639,"o":"m 1559 345 q 1489 87 1559 181 q 1252 -20 1411 -20 q 1115 26 1190 -20 q 985 112 1050 69 q 820 159 902 159 q 654 112 738 159 l 523 26 q 386 -20 448 -20 q 149 86 227 -20 q 80 345 80 180 q 125 632 80 479 q 249 896 173 792 l 418 896 q 270 658 332 823 q 213 381 213 504 q 386 160 213 160 q 543 196 480 160 q 645 266 594 231 q 821 303 715 303 q 994 266 926 303 q 1095 196 1045 231 q 1252 160 1158 160 q 1426 381 1426 160 q 1368 658 1426 504 q 1221 896 1306 823 l 1391 896 q 1513 632 1466 792 q 1559 345 1559 479 "},"Û":{"x_min":121,"x_max":896,"ha":1017,"o":"m 121 1013 l 259 1013 l 259 397 q 317 162 259 234 q 508 91 376 91 q 699 162 640 91 q 758 397 758 234 l 758 1013 l 896 1013 l 896 380 q 798 81 896 182 q 508 -20 700 -20 q 218 81 316 -20 q 121 380 121 182 l 121 1013 m 444 1289 l 572 1289 l 715 1109 l 620 1109 l 508 1229 l 396 1109 l 302 1109 l 444 1289 "},"*":{"x_min":42,"x_max":653,"ha":695,"o":"m 653 845 l 409 714 l 653 581 l 613 515 l 386 652 l 386 397 l 309 397 l 309 652 l 81 515 l 42 581 l 285 714 l 42 845 l 81 913 l 309 775 l 309 1031 l 386 1031 l 386 775 l 613 913 l 653 845 "},"₫":{"x_min":88,"x_max":871,"ha":882,"o":"m 642 644 l 642 871 l 421 871 l 421 956 l 642 956 l 642 1055 l 767 1055 l 767 956 l 871 956 l 871 871 l 767 871 l 767 0 l 642 0 l 642 114 q 542 12 602 45 q 398 -20 482 -20 q 174 89 260 -20 q 88 379 88 199 q 174 668 88 558 q 398 778 260 778 q 542 745 482 778 q 642 644 602 712 m 217 379 q 273 162 217 241 q 429 84 330 84 q 585 162 528 84 q 642 379 642 241 q 585 595 642 516 q 429 674 528 674 q 273 595 330 674 q 217 379 217 516 m 238 -117 l 644 -117 l 644 -217 l 238 -217 l 238 -117 "},"°":{"x_min":132,"x_max":562,"ha":695,"o":"m 347 943 q 255 905 292 943 q 218 813 218 867 q 255 722 218 759 q 347 686 292 686 q 438 722 401 686 q 476 813 476 759 q 438 905 476 867 q 347 943 400 943 m 347 1031 q 430 1014 390 1031 q 499 966 470 997 q 546 897 530 935 q 562 813 562 858 q 499 662 562 724 q 345 600 436 600 q 193 661 254 600 q 132 813 132 722 q 194 967 132 904 q 347 1031 256 1031 "},"V":{"x_min":11,"x_max":939,"ha":950,"o":"m 397 0 l 11 1013 l 154 1013 l 475 160 l 796 1013 l 939 1013 l 553 0 l 397 0 "},"å":{"x_min":83,"x_max":725,"ha":851,"o":"m 475 382 q 266 347 324 382 q 208 228 208 312 q 251 123 208 162 q 370 84 295 84 q 537 157 474 84 q 600 354 600 231 l 600 382 l 475 382 m 725 433 l 725 0 l 600 0 l 600 115 q 493 12 557 45 q 337 -20 429 -20 q 151 45 220 -20 q 83 221 83 111 q 168 414 83 349 q 425 480 254 480 l 600 480 l 600 492 q 543 625 600 578 q 384 672 486 672 q 257 656 319 672 q 139 610 195 641 l 139 725 q 271 764 207 751 q 397 778 336 778 q 643 692 562 778 q 725 433 725 607 m 507 1033 q 477 1106 507 1076 q 404 1136 447 1136 q 330 1106 359 1136 q 301 1033 301 1076 q 330 959 301 989 q 404 930 359 930 q 477 959 447 930 q 507 1033 507 989 m 590 1033 q 536 901 590 955 q 404 847 482 847 q 271 901 325 847 q 218 1033 218 955 q 271 1165 218 1111 q 404 1219 325 1219 q 536 1165 482 1219 q 590 1033 590 1111 "}," ":{"x_min":0,"x_max":0,"ha":442},"0":{"x_min":92,"x_max":792,"ha":884,"o":"m 442 922 q 283 817 336 922 q 230 505 230 713 q 283 193 230 297 q 442 89 336 89 q 601 193 548 89 q 655 505 655 297 q 601 817 655 713 q 442 922 548 922 m 442 1031 q 702 896 612 1031 q 792 505 792 761 q 702 114 792 249 q 442 -20 612 -20 q 181 114 271 -20 q 92 505 92 249 q 181 896 92 761 q 442 1031 271 1031 "},"¾":{"x_min":66,"x_max":1302,"ha":1346,"o":"m 355 759 q 451 710 417 747 q 486 618 486 673 q 421 488 486 533 q 236 443 357 443 q 155 450 198 443 q 66 471 113 457 l 66 553 q 141 525 101 534 q 227 517 182 517 q 342 543 301 517 q 383 618 383 570 q 345 694 383 668 q 234 720 307 720 l 176 720 l 176 793 l 239 793 q 336 814 303 793 q 370 876 370 835 q 336 936 370 915 q 237 957 302 957 q 175 950 210 957 q 86 929 141 944 l 86 1007 q 178 1024 135 1018 q 259 1031 222 1031 q 414 991 357 1031 q 472 883 472 951 q 441 804 472 837 q 355 759 411 772 m 1112 483 l 903 200 l 1112 200 l 1112 483 m 1097 566 l 1210 566 l 1210 200 l 1302 200 l 1302 126 l 1210 126 l 1210 0 l 1112 0 l 1112 126 l 832 126 l 832 208 l 1097 566 m 935 1031 l 1044 1031 l 411 -20 l 303 -20 l 935 1031 "},"@":{"x_min":92,"x_max":1292,"ha":1389,"o":"m 518 364 q 565 212 518 267 q 697 157 613 157 q 828 212 780 157 q 876 364 876 268 q 827 515 876 459 q 696 571 778 571 q 566 515 614 571 q 518 364 518 459 m 886 161 q 792 84 845 109 q 670 60 740 60 q 481 144 554 60 q 409 364 409 228 q 482 584 409 499 q 670 669 555 669 q 793 643 740 669 q 886 566 846 618 l 886 655 l 983 655 l 983 157 q 1138 247 1082 171 q 1194 442 1194 323 q 1172 579 1194 515 q 1107 697 1151 642 q 936 832 1037 785 q 715 880 834 880 q 555 857 632 880 q 414 792 479 835 q 247 611 307 723 q 188 368 188 499 q 226 166 188 260 q 339 0 265 72 q 504 -107 410 -70 q 704 -144 597 -144 q 875 -114 791 -144 q 1030 -30 960 -84 l 1091 -105 q 906 -205 1006 -170 q 703 -241 806 -241 q 467 -196 578 -241 q 269 -67 356 -152 q 137 128 182 17 q 92 368 92 240 q 138 603 92 491 q 269 800 184 715 q 471 932 357 886 q 714 978 586 978 q 981 919 858 978 q 1187 751 1104 860 q 1265 607 1238 685 q 1292 445 1292 529 q 1184 164 1292 267 q 886 57 1076 61 l 886 161 "},"ö":{"x_min":77,"x_max":774,"ha":850,"o":"m 425 672 q 267 593 325 672 q 209 379 209 515 q 266 164 209 242 q 425 86 324 86 q 583 164 525 86 q 642 379 642 243 q 583 592 642 513 q 425 672 525 672 m 425 778 q 681 672 588 778 q 774 379 774 566 q 681 86 774 192 q 425 -20 588 -20 q 169 86 262 -20 q 77 379 77 192 q 169 672 77 566 q 425 778 262 778 m 489 1053 l 627 1053 l 627 916 l 489 916 l 489 1053 m 224 1053 l 362 1053 l 362 916 l 224 916 l 224 1053 "},"i":{"x_min":131,"x_max":256,"ha":386,"o":"m 131 760 l 256 760 l 256 0 l 131 0 l 131 760 m 131 1055 l 256 1055 l 256 897 l 131 897 l 131 1055 "},"₳":{"x_min":10.859375,"x_max":871.515625,"ha":884,"o":"m 34 576 l 34 659 l 241 659 l 364 1012 l 519 1012 l 642 659 l 848 659 l 848 576 l 671 576 l 719 436 l 848 436 l 848 352 l 748 352 l 871 0 l 729 0 l 613 352 l 270 352 l 155 0 l 10 0 l 133 352 l 34 352 l 34 436 l 162 436 l 212 576 l 34 576 m 343 576 l 297 436 l 585 436 l 539 576 l 343 576 m 370 659 l 512 659 l 441 877 l 370 659 "},"Õ":{"x_min":78,"x_max":1015,"ha":1093,"o":"m 547 920 q 309 808 397 920 q 222 505 222 697 q 309 202 222 313 q 547 91 397 91 q 783 202 696 91 q 871 505 871 313 q 783 808 871 697 q 547 920 696 920 m 547 1031 q 887 888 760 1031 q 1015 505 1015 745 q 887 122 1015 265 q 547 -20 760 -20 q 205 122 333 -20 q 78 505 78 264 q 205 888 78 745 q 547 1031 333 1031 m 543 1160 l 505 1182 q 477 1196 488 1192 q 459 1200 467 1200 q 421 1182 434 1200 q 407 1135 407 1165 l 407 1131 l 323 1131 q 357 1239 323 1199 q 451 1280 392 1280 q 496 1274 475 1280 q 549 1250 516 1269 l 587 1230 q 614 1217 603 1221 q 636 1213 626 1213 q 671 1230 658 1213 q 685 1275 685 1247 l 685 1280 l 770 1280 q 733 1171 768 1211 q 641 1131 698 1131 q 598 1136 618 1131 q 543 1160 579 1141 "},"þ":{"x_min":126,"x_max":806,"ha":882,"o":"m 251 114 l 251 -289 l 126 -289 l 126 1055 l 251 1055 l 251 644 q 350 745 290 712 q 494 778 410 778 q 719 668 632 778 q 806 379 806 558 q 719 89 806 199 q 494 -20 632 -20 q 350 12 410 -20 q 251 114 290 45 m 676 379 q 619 595 676 516 q 463 674 562 674 q 307 595 364 674 q 251 379 251 516 q 307 162 251 241 q 463 84 364 84 q 619 162 562 84 q 676 379 676 241 "},"]":{"x_min":135,"x_max":422,"ha":542,"o":"m 422 1055 l 422 -183 l 135 -183 l 135 -86 l 297 -86 l 297 958 l 135 958 l 135 1055 l 422 1055 "},"m":{"x_min":126,"x_max":1235,"ha":1353,"o":"m 722 614 q 834 738 768 698 q 987 778 899 778 q 1170 694 1106 778 q 1235 458 1235 611 l 1235 0 l 1110 0 l 1110 454 q 1071 616 1110 563 q 953 669 1032 669 q 799 604 855 669 q 743 429 743 540 l 743 0 l 618 0 l 618 454 q 579 616 618 564 q 459 669 540 669 q 307 604 363 669 q 251 429 251 539 l 251 0 l 126 0 l 126 760 l 251 760 l 251 642 q 353 744 293 711 q 495 778 413 778 q 636 736 578 778 q 722 614 694 694 "},"ꙅ":{"x_min":68,"x_max":648,"ha":724,"o":"m 109 738 q 221 768 160 758 q 351 778 282 778 q 567 719 491 778 q 643 554 643 661 q 591 415 643 465 q 423 340 539 364 l 380 330 q 230 277 264 305 q 196 199 196 250 q 243 114 196 144 q 378 84 290 84 q 511 102 444 84 q 648 156 578 120 l 648 27 q 508 -8 574 3 q 381 -20 442 -20 q 151 41 235 -20 q 68 209 68 103 q 123 354 68 302 q 312 434 179 406 l 355 444 q 488 491 455 466 q 522 559 522 516 q 475 645 522 616 q 336 674 429 674 q 218 660 275 674 q 109 620 161 647 l 109 738 "},"₥":{"x_min":126.15625,"x_max":1235.046875,"ha":1353,"o":"m 485 -128 l 370 -128 l 617 473 q 579 617 614 569 q 459 669 540 669 q 307 604 364 669 q 251 429 251 539 l 251 0 l 126 0 l 126 759 l 251 759 l 251 641 q 354 744 293 710 q 495 777 413 777 q 636 735 578 777 q 697 668 672 710 l 788 888 l 903 888 l 843 743 q 987 777 906 777 q 1170 694 1106 777 q 1235 458 1235 611 l 1235 0 l 1109 0 l 1109 454 q 1070 616 1109 563 q 952 669 1032 669 q 799 604 855 669 q 743 429 743 540 l 743 0 l 617 0 l 617 193 l 485 -128 "},"8":{"x_min":94,"x_max":789,"ha":884,"o":"m 441 481 q 287 428 343 481 q 232 285 232 376 q 287 141 232 193 q 441 89 343 89 q 595 141 539 89 q 652 285 652 194 q 596 428 652 376 q 441 481 540 481 m 304 539 q 167 621 216 561 q 118 768 118 681 q 204 960 118 889 q 441 1031 290 1031 q 678 960 592 1031 q 765 768 765 889 q 715 621 765 681 q 578 539 666 561 q 733 449 678 516 q 789 284 789 381 q 699 58 789 137 q 441 -20 609 -20 q 183 58 273 -20 q 94 284 94 137 q 149 449 94 381 q 304 539 205 516 m 254 755 q 303 632 254 676 q 441 589 352 589 q 579 632 529 589 q 629 755 629 676 q 579 878 629 834 q 441 922 529 922 q 303 878 352 922 q 254 755 254 834 "},"₵":{"x_min":115.296875,"x_max":775.203125,"ha":891,"o":"m 775 805 l 775 661 q 656 763 713 732 q 530 793 598 793 l 530 88 q 656 119 598 88 q 775 221 713 149 l 775 78 q 652 4 714 29 q 530 -19 592 -18 l 530 -204 l 462 -204 l 462 -16 q 259 78 337 0 q 115 436 115 223 l 115 447 q 259 803 115 666 q 461 897 341 882 l 461 1055 l 530 1055 l 530 902 q 653 877 593 900 q 775 805 716 853 m 462 96 l 461 786 q 354 725 400 770 q 264 531 274 646 q 264 352 255 421 q 354 157 281 230 q 462 96 400 111 "},"R":{"x_min":136,"x_max":925,"ha":965,"o":"m 616 474 q 702 411 660 460 q 785 276 743 362 l 925 0 l 777 0 l 648 259 q 551 394 598 361 q 422 428 504 428 l 273 428 l 273 0 l 136 0 l 136 1013 l 445 1013 q 704 940 619 1013 q 790 721 790 867 q 745 562 790 625 q 616 474 701 499 m 273 900 l 273 541 l 445 541 q 595 586 544 541 q 646 721 646 632 q 595 854 646 809 q 445 900 544 900 l 273 900 "},"ꙭ":{"x_min":76.640625,"x_max":1338.8125,"ha":1415,"o":"m 919 484 l 1062 484 l 1062 312 l 919 312 l 919 484 m 354 484 l 497 484 l 497 312 l 354 312 l 354 484 m 990 672 q 831 593 889 672 q 773 379 773 515 q 831 164 773 242 q 990 86 889 86 q 1148 164 1089 86 q 1206 379 1206 243 q 1148 593 1206 514 q 990 672 1089 672 m 425 672 q 266 593 324 672 q 208 379 208 515 q 266 164 208 242 q 425 86 324 86 q 583 164 524 86 q 641 379 641 243 q 583 593 641 514 q 425 672 524 672 m 425 777 q 680 672 588 777 q 707 637 695 655 q 733 672 719 655 q 990 777 826 777 q 1245 672 1152 777 q 1338 379 1338 566 q 1245 86 1338 192 q 990 -19 1152 -19 q 733 86 826 -19 q 707 121 719 103 q 680 86 695 103 q 425 -19 588 -19 q 169 86 261 -19 q 76 379 76 192 q 169 672 76 566 q 425 777 261 777 "},"á":{"x_min":83,"x_max":725,"ha":851,"o":"m 475 382 q 266 347 324 382 q 208 228 208 312 q 251 123 208 162 q 370 84 295 84 q 537 157 474 84 q 600 354 600 231 l 600 382 l 475 382 m 725 433 l 725 0 l 600 0 l 600 115 q 493 12 557 45 q 337 -20 429 -20 q 151 45 220 -20 q 83 221 83 111 q 168 414 83 349 q 425 480 254 480 l 600 480 l 600 492 q 543 625 600 578 q 384 672 486 672 q 257 656 319 672 q 139 610 195 641 l 139 725 q 271 764 207 751 q 397 778 336 778 q 643 692 562 778 q 725 433 725 607 m 496 1111 l 632 1111 l 410 856 l 307 856 l 496 1111 "},"×":{"x_min":191,"x_max":974,"ha":1164,"o":"m 974 745 l 664 434 l 974 125 l 893 43 l 582 354 l 271 43 l 191 125 l 500 434 l 191 745 l 271 828 l 582 516 l 893 828 l 974 745 "},"o":{"x_min":77,"x_max":774,"ha":850,"o":"m 425 672 q 267 593 325 672 q 209 379 209 515 q 266 164 209 242 q 425 86 324 86 q 583 164 525 86 q 642 379 642 243 q 583 592 642 513 q 425 672 525 672 m 425 778 q 681 672 588 778 q 774 379 774 566 q 681 86 774 192 q 425 -20 588 -20 q 169 86 262 -20 q 77 379 77 192 q 169 672 77 566 q 425 778 262 778 "},"5":{"x_min":107,"x_max":762,"ha":884,"o":"m 150 1013 l 687 1013 l 687 898 l 275 898 l 275 648 q 334 663 304 658 q 394 669 364 669 q 662 576 563 669 q 762 324 762 483 q 660 70 762 161 q 373 -20 558 -20 q 243 -9 309 -20 q 107 23 177 1 l 107 161 q 233 111 168 127 q 370 95 298 95 q 556 156 488 95 q 625 324 625 218 q 556 492 625 430 q 370 554 488 554 q 261 541 316 554 q 150 504 206 529 l 150 1013 "},"₩":{"x_min":40.015625,"x_max":1333.390625,"ha":1373,"o":"m 123 704 l 103 784 l 40 784 l 40 881 l 79 881 l 46 1012 l 184 1012 l 217 881 l 577 881 l 609 1012 l 763 1012 l 796 881 l 1156 881 l 1188 1012 l 1327 1012 l 1294 881 l 1333 881 l 1333 784 l 1270 784 l 1250 704 l 1333 704 l 1333 607 l 1226 607 l 1073 0 l 901 0 l 753 607 l 621 607 l 472 0 l 299 0 l 147 607 l 40 607 l 40 704 l 123 704 m 864 607 l 976 156 l 1088 607 l 864 607 m 820 784 l 840 704 l 1112 704 l 1131 784 l 820 784 m 285 607 l 397 156 l 509 607 l 285 607 m 664 784 l 644 704 l 729 704 l 710 784 l 664 784 m 241 784 l 261 704 l 533 704 l 552 784 l 241 784 "},"õ":{"x_min":77,"x_max":774,"ha":850,"o":"m 425 672 q 267 593 325 672 q 209 379 209 515 q 266 164 209 242 q 425 86 324 86 q 583 164 525 86 q 642 379 642 243 q 583 592 642 513 q 425 672 525 672 m 425 778 q 681 672 588 778 q 774 379 774 566 q 681 86 774 192 q 425 -20 588 -20 q 169 86 262 -20 q 77 379 77 192 q 169 672 77 566 q 425 778 262 778 m 422 929 l 384 966 q 358 986 369 980 q 338 993 347 993 q 300 968 312 993 q 286 888 288 943 l 202 888 q 237 1029 203 979 q 334 1079 272 1079 q 381 1069 359 1079 q 428 1037 403 1060 l 466 1000 q 492 980 481 986 q 512 974 503 974 q 550 998 538 974 q 564 1079 562 1023 l 649 1079 q 613 937 647 987 q 516 888 578 888 q 469 897 491 888 q 422 929 447 906 "},"₲":{"x_min":63.078125,"x_max":814.546875,"ha":884,"o":"m 516 -111 l 421 -111 l 421 -14 q 177 119 269 6 q 63 505 63 257 q 177 892 63 753 q 421 1026 269 1005 l 421 1123 l 516 1123 l 516 1030 q 652 1006 587 1027 q 792 934 728 982 l 792 788 q 655 885 727 853 q 516 918 588 915 l 516 92 q 611 105 569 94 q 699 144 660 118 l 699 416 l 617 416 l 617 529 l 814 529 l 814 94 q 666 9 747 37 q 516 -18 595 -15 l 516 -111 m 421 101 l 421 909 q 277 814 330 887 q 202 505 202 710 q 277 196 202 300 q 421 101 330 123 "},"7":{"x_min":114,"x_max":765,"ha":884,"o":"m 114 1013 l 765 1013 l 765 954 l 397 0 l 254 0 l 600 898 l 114 898 l 114 1013 "},"K":{"x_min":136,"x_max":940,"ha":911,"o":"m 136 1013 l 273 1013 l 273 584 l 727 1013 l 904 1013 l 401 540 l 940 0 l 759 0 l 273 487 l 273 0 l 136 0 l 136 1013 "},",":{"x_min":107,"x_max":306,"ha":442,"o":"m 163 172 l 306 172 l 306 55 l 194 -162 l 107 -162 l 163 55 l 163 172 "},"d":{"x_min":77,"x_max":756,"ha":882,"o":"m 631 644 l 631 1055 l 756 1055 l 756 0 l 631 0 l 631 114 q 531 12 591 45 q 387 -20 471 -20 q 163 89 249 -20 q 77 379 77 199 q 163 668 77 558 q 387 778 249 778 q 531 745 471 778 q 631 644 591 712 m 206 379 q 262 162 206 241 q 418 84 319 84 q 574 162 517 84 q 631 379 631 241 q 574 595 631 516 q 418 674 517 674 q 262 595 319 674 q 206 379 206 516 "},"¨":{"x_min":146,"x_max":550,"ha":695,"o":"m 412 1053 l 550 1053 l 550 916 l 412 916 l 412 1053 m 146 1053 l 284 1053 l 284 916 l 146 916 l 146 1053 "},"Ô":{"x_min":78,"x_max":1015,"ha":1093,"o":"m 547 920 q 309 808 397 920 q 222 505 222 697 q 309 202 222 313 q 547 91 397 91 q 783 202 696 91 q 871 505 871 313 q 783 808 871 697 q 547 920 696 920 m 547 1031 q 887 888 760 1031 q 1015 505 1015 745 q 887 122 1015 265 q 547 -20 760 -20 q 205 122 333 -20 q 78 505 78 264 q 205 888 78 745 q 547 1031 333 1031 m 482 1289 l 610 1289 l 753 1109 l 658 1109 l 546 1229 l 434 1109 l 340 1109 l 482 1289 "},"E":{"x_min":136,"x_max":788,"ha":878,"o":"m 136 1013 l 776 1013 l 776 898 l 273 898 l 273 598 l 755 598 l 755 483 l 273 483 l 273 115 l 788 115 l 788 0 l 136 0 l 136 1013 "},"Y":{"x_min":-3,"x_max":851,"ha":848,"o":"m -3 1013 l 144 1013 l 425 596 l 703 1013 l 851 1013 l 493 482 l 493 0 l 355 0 l 355 482 l -3 1013 "},"\"":{"x_min":134,"x_max":505,"ha":639,"o":"m 249 1013 l 249 637 l 134 637 l 134 1013 l 249 1013 m 505 1013 l 505 637 l 390 637 l 390 1013 l 505 1013 "},"ê":{"x_min":77,"x_max":781,"ha":855,"o":"m 781 411 l 781 350 l 207 350 q 284 153 215 221 q 478 86 354 86 q 617 103 550 86 q 752 157 685 121 l 752 39 q 614 -4 684 10 q 471 -20 543 -20 q 183 85 289 -20 q 77 372 77 191 q 177 668 77 558 q 449 778 278 778 q 691 679 602 778 q 781 411 781 580 m 656 448 q 598 611 654 550 q 450 672 542 672 q 283 613 346 672 q 211 447 220 554 l 656 448 m 383 1111 l 483 1111 l 650 856 l 555 856 l 433 1022 l 311 856 l 217 856 l 383 1111 "},"Ï":{"x_min":3,"x_max":406,"ha":410,"o":"m 136 1013 l 273 1013 l 273 0 l 136 0 l 136 1013 m 268 1269 l 406 1269 l 406 1131 l 268 1131 l 268 1269 m 3 1269 l 141 1269 l 141 1131 l 3 1131 l 3 1269 "},"Â":{"x_min":11,"x_max":939,"ha":950,"o":"m 475 878 l 289 374 l 661 374 l 475 878 m 397 1013 l 553 1013 l 939 0 l 796 0 l 704 260 l 247 260 l 155 0 l 11 0 l 397 1013 m 411 1289 l 538 1289 l 682 1109 l 587 1109 l 475 1229 l 362 1109 l 268 1109 l 411 1289 "},"Í":{"x_min":110,"x_max":368.40625,"ha":410,"o":"m 136 1013 l 273 1013 l 273 0 l 136 0 l 136 1013 m 242 1288 l 368 1288 l 213 1109 l 110 1109 l 242 1288 "},"´":{"x_min":251,"x_max":576,"ha":695,"o":"m 440 1111 l 576 1111 l 354 856 l 251 856 l 440 1111 "},"ì":{"x_min":-39,"x_max":286,"ha":386,"o":"m 94 1111 l 286 857 l 182 857 l -39 1111 l 94 1111 m 131 760 l 256 760 l 256 0 l 131 0 l 131 760 m 193 778 l 193 778 "},"±":{"x_min":147,"x_max":1017,"ha":1164,"o":"m 639 870 l 639 608 l 1017 608 l 1017 493 l 639 493 l 639 231 l 525 231 l 525 493 l 147 493 l 147 608 l 525 608 l 525 870 l 639 870 m 147 115 l 1017 115 l 1017 0 l 147 0 l 147 115 "},"Ú":{"x_min":121,"x_max":896,"ha":1017,"o":"m 121 1013 l 259 1013 l 259 397 q 317 162 259 234 q 508 91 376 91 q 699 162 640 91 q 758 397 758 234 l 758 1013 l 896 1013 l 896 380 q 798 81 896 182 q 508 -20 700 -20 q 218 81 316 -20 q 121 380 121 182 l 121 1013 m 545 1288 l 671 1288 l 516 1109 l 413 1109 l 545 1288 "},"|":{"x_min":176,"x_max":291,"ha":468,"o":"m 291 1061 l 291 -328 l 176 -328 l 176 1061 l 291 1061 "},"§":{"x_min":62,"x_max":630,"ha":695,"o":"m 256 635 q 193 573 214 603 q 172 511 172 542 q 219 414 172 460 q 435 278 266 369 q 498 339 477 308 q 520 401 520 370 q 471 498 520 452 q 256 635 423 544 m 561 992 l 561 881 q 456 920 504 907 q 370 933 408 933 q 268 905 304 933 q 232 830 232 878 q 370 692 232 769 q 397 676 388 682 q 585 543 541 595 q 630 422 630 491 q 598 314 630 361 q 504 230 567 266 q 565 158 546 195 q 585 78 585 121 q 515 -75 585 -18 q 329 -132 446 -132 q 227 -122 280 -132 q 116 -93 175 -112 l 116 18 q 225 -21 174 -8 q 314 -34 275 -34 q 421 -5 383 -34 q 460 74 460 22 q 310 226 460 143 l 294 235 q 105 369 148 317 q 62 490 62 421 q 93 600 62 552 q 187 682 125 649 q 127 750 147 712 q 107 835 107 788 q 174 977 107 923 q 354 1031 242 1031 q 455 1021 404 1031 q 561 992 507 1011 "},"Ý":{"x_min":-3,"x_max":851,"ha":848,"o":"m -3 1013 l 144 1013 l 425 596 l 703 1013 l 851 1013 l 493 482 l 493 0 l 355 0 l 355 482 l -3 1013 m 462 1288 l 588 1288 l 433 1109 l 330 1109 l 462 1288 "},"b":{"x_min":126,"x_max":806,"ha":882,"o":"m 676 379 q 619 595 676 516 q 463 674 562 674 q 307 595 364 674 q 251 379 251 516 q 307 162 251 241 q 463 84 364 84 q 619 162 562 84 q 676 379 676 241 m 251 644 q 350 745 290 712 q 494 778 410 778 q 719 668 632 778 q 806 379 806 558 q 719 89 806 199 q 494 -20 632 -20 q 350 12 410 -20 q 251 114 290 45 l 251 0 l 126 0 l 126 1055 l 251 1055 l 251 644 "},"q":{"x_min":77,"x_max":756,"ha":882,"o":"m 206 379 q 262 162 206 241 q 418 84 319 84 q 574 162 517 84 q 631 379 631 241 q 574 595 631 516 q 418 674 517 674 q 262 595 319 674 q 206 379 206 516 m 631 114 q 531 12 591 45 q 387 -20 471 -20 q 163 89 249 -20 q 77 379 77 199 q 163 668 77 558 q 387 778 249 778 q 531 745 471 778 q 631 644 591 712 l 631 760 l 756 760 l 756 -289 l 631 -289 l 631 114 "},"Ö":{"x_min":78,"x_max":1015,"ha":1093,"o":"m 547 920 q 309 808 397 920 q 222 505 222 697 q 309 202 222 313 q 547 91 397 91 q 783 202 696 91 q 871 505 871 313 q 783 808 871 697 q 547 920 696 920 m 547 1031 q 887 888 760 1031 q 1015 505 1015 745 q 887 122 1015 265 q 547 -20 760 -20 q 205 122 333 -20 q 78 505 78 264 q 205 888 78 745 q 547 1031 333 1031 m 610 1269 l 748 1269 l 748 1131 l 610 1131 l 610 1269 m 345 1269 l 483 1269 l 483 1131 l 345 1131 l 345 1269 "},"z":{"x_min":60,"x_max":670,"ha":729,"o":"m 77 760 l 670 760 l 670 646 l 200 100 l 670 100 l 670 0 l 60 0 l 60 113 l 529 660 l 77 660 l 77 760 "},"ꚍ":{"x_min":40.6875,"x_max":768.421875,"ha":809,"o":"m 40 759 l 768 759 l 768 659 l 468 659 l 468 267 q 492 138 468 169 q 590 105 516 105 l 649 105 l 649 0 l 575 0 q 397 65 451 0 q 341 275 341 131 l 341 659 l 40 659 l 40 759 "},"Ꚋ":{"x_min":-4.0625,"x_max":1052.609375,"ha":1087,"o":"m -4 1012 l 852 1012 l 852 897 l 493 897 l 493 597 l 775 597 q 978 516 902 597 q 1052 278 1052 439 l 1052 70 q 983 -195 1052 -112 q 759 -278 914 -278 l 708 -278 l 708 -162 l 750 -162 q 878 -111 841 -162 q 916 70 916 -61 l 916 267 q 874 428 916 375 q 748 482 832 482 l 493 482 l 493 0 l 355 0 l 355 897 l -4 897 l -4 1012 "},"ã":{"x_min":83,"x_max":725,"ha":851,"o":"m 475 382 q 266 347 324 382 q 208 228 208 312 q 251 123 208 162 q 370 84 295 84 q 537 157 474 84 q 600 354 600 231 l 600 382 l 475 382 m 725 433 l 725 0 l 600 0 l 600 115 q 493 12 557 45 q 337 -20 429 -20 q 151 45 220 -20 q 83 221 83 111 q 168 414 83 349 q 425 480 254 480 l 600 480 l 600 492 q 543 625 600 578 q 384 672 486 672 q 257 656 319 672 q 139 610 195 641 l 139 725 q 271 764 207 751 q 397 778 336 778 q 643 692 562 778 q 725 433 725 607 m 401 929 l 362 966 q 336 986 347 980 q 316 993 325 993 q 278 968 290 993 q 265 888 266 943 l 180 888 q 215 1029 181 979 q 312 1079 250 1079 q 359 1069 338 1079 q 406 1037 381 1060 l 445 1000 q 471 980 460 986 q 491 974 482 974 q 529 998 517 974 q 543 1079 541 1023 l 628 1079 q 592 937 626 987 q 495 888 557 888 q 448 897 469 888 q 401 929 426 906 "},"æ":{"x_min":83,"x_max":1289,"ha":1364,"o":"m 1164 448 q 1107 611 1163 550 q 958 672 1051 672 q 792 613 854 672 q 720 447 729 554 l 1164 448 m 673 653 q 795 746 723 714 q 957 778 867 778 q 1199 679 1110 778 q 1289 411 1289 580 l 1289 350 l 716 350 q 793 152 724 220 q 986 84 862 84 q 1124 102 1056 84 q 1260 156 1192 120 l 1260 38 q 1121 -5 1192 9 q 979 -20 1051 -20 q 782 21 866 -20 q 645 143 698 62 q 523 20 596 61 q 353 -20 450 -20 q 154 43 225 -20 q 83 221 83 107 q 168 414 83 349 q 424 480 254 480 l 599 480 l 599 492 q 542 625 599 578 q 383 672 486 672 q 257 656 318 672 q 139 610 195 641 l 139 725 q 271 764 207 751 q 396 778 336 778 q 565 745 493 778 q 673 653 637 712 m 475 382 q 266 347 324 382 q 208 228 208 312 q 251 123 208 162 q 370 84 295 84 q 536 157 473 84 q 599 354 599 231 l 599 382 l 475 382 "},"®":{"x_min":192,"x_max":1199,"ha":1389,"o":"m 695 937 q 529 905 606 937 q 389 809 453 873 q 292 668 325 745 q 260 502 260 590 q 292 337 260 414 q 389 197 325 260 q 529 101 453 133 q 695 69 606 69 q 862 101 785 69 q 1003 197 939 133 q 1098 336 1066 260 q 1130 502 1130 413 q 1098 669 1130 592 q 1003 809 1066 746 q 862 905 939 873 q 695 937 785 937 m 695 1007 q 888 969 798 1007 q 1051 858 977 932 q 1162 695 1125 784 q 1199 502 1199 606 q 1162 310 1199 399 q 1051 148 1125 222 q 888 37 977 74 q 695 0 798 0 q 502 37 592 0 q 339 148 413 74 q 228 310 265 222 q 192 502 192 399 q 228 695 192 606 q 339 858 265 784 q 502 969 413 932 q 695 1007 592 1007 m 676 726 l 593 726 l 593 539 l 676 539 q 781 560 751 539 q 811 631 811 581 q 781 704 811 683 q 676 726 751 726 m 681 796 q 860 755 801 796 q 920 633 920 715 q 884 536 920 574 q 783 487 848 498 q 822 455 799 481 q 876 379 845 429 l 970 229 l 852 229 l 764 370 q 699 452 724 435 q 637 470 674 470 l 593 470 l 593 229 l 488 229 l 488 796 l 681 796 "},"É":{"x_min":136,"x_max":788,"ha":878,"o":"m 136 1013 l 776 1013 l 776 898 l 273 898 l 273 598 l 755 598 l 755 483 l 273 483 l 273 115 l 788 115 l 788 0 l 136 0 l 136 1013 m 491 1288 l 617 1288 l 462 1109 l 359 1109 l 491 1288 "},"~":{"x_min":147,"x_max":1016,"ha":1164,"o":"m 1016 554 l 1016 433 q 884 356 944 379 q 757 334 823 334 q 584 373 683 334 q 573 377 576 376 q 558 383 568 379 q 389 425 453 425 q 271 398 330 425 q 147 316 213 372 l 147 437 q 278 514 218 491 q 405 538 339 538 q 579 497 479 538 q 589 493 586 494 q 604 487 595 491 q 773 446 709 446 q 888 471 831 446 q 1016 554 946 497 "},"³":{"x_min":66,"x_max":486,"ha":557,"o":"m 355 759 q 451 710 417 747 q 486 618 486 673 q 421 488 486 533 q 236 443 357 443 q 155 450 198 443 q 66 471 113 457 l 66 553 q 141 525 101 534 q 227 517 182 517 q 342 543 301 517 q 383 618 383 570 q 345 694 383 668 q 234 720 307 720 l 176 720 l 176 793 l 239 793 q 336 814 303 793 q 370 876 370 835 q 336 936 370 915 q 237 957 302 957 q 175 950 210 957 q 86 929 141 944 l 86 1007 q 178 1024 135 1018 q 259 1031 222 1031 q 414 991 357 1031 q 472 883 472 951 q 441 804 472 837 q 355 759 411 772 "},"₧":{"x_min":136.328125,"x_max":1702.34375,"ha":1767,"o":"m 265 900 l 265 519 l 427 519 q 566 569 517 519 q 615 710 615 618 q 566 850 615 800 q 427 900 517 900 l 265 900 m 750 691 q 670 483 746 555 q 427 406 587 406 l 265 406 l 265 0 l 136 0 l 136 1012 l 427 1012 q 670 935 587 1012 q 745 788 729 880 l 800 788 l 800 1003 l 918 1003 l 918 788 l 1160 788 l 1160 691 l 918 691 l 918 278 q 942 159 918 185 q 1039 132 966 132 l 1155 132 l 1155 156 q 1284 102 1220 120 q 1409 84 1347 84 q 1536 114 1492 84 q 1581 200 1581 145 q 1549 278 1581 250 q 1407 330 1517 305 l 1367 340 q 1209 415 1258 364 q 1161 554 1161 465 q 1232 719 1161 661 q 1435 777 1304 777 q 1558 767 1500 777 q 1664 737 1615 757 l 1664 619 q 1560 659 1614 646 q 1449 673 1507 673 q 1318 644 1361 673 q 1274 559 1274 616 q 1305 491 1274 516 q 1431 444 1337 466 l 1471 434 q 1649 354 1597 406 q 1702 209 1702 302 q 1623 42 1702 103 q 1406 -19 1544 -19 q 1286 -7 1348 -19 q 1155 27 1224 4 l 1155 28 l 1039 28 q 851 82 903 28 q 800 278 800 136 l 800 691 l 750 691 "},"¡":{"x_min":210,"x_max":348,"ha":557,"o":"m 348 841 l 210 841 l 210 1013 l 348 1013 l 348 841 m 348 0 l 210 0 l 210 444 l 224 687 l 334 687 l 348 444 l 348 0 "},"Ꚍ":{"x_min":-4.0625,"x_max":852.53125,"ha":848,"o":"m -4 1012 l 852 1012 l 852 897 l 493 897 l 493 348 q 530 166 493 217 q 657 115 567 115 l 700 115 l 700 0 l 648 0 q 424 82 494 0 q 355 348 355 165 l 355 897 l -4 897 l -4 1012 "},"ꙩ":{"x_min":77,"x_max":774,"ha":850,"o":"m 425 672 q 267 593 325 672 q 209 379 209 515 q 266 164 209 242 q 425 86 324 86 q 583 164 525 86 q 642 379 642 243 q 583 592 642 513 q 425 672 525 672 m 425 778 q 681 672 588 778 q 774 379 774 566 q 681 86 774 192 q 425 -20 588 -20 q 169 86 262 -20 q 77 379 77 192 q 169 672 77 566 q 425 778 262 778 m 354 484 l 497 484 l 497 312 l 354 312 l 354 484 "},"[":{"x_min":119,"x_max":407,"ha":542,"o":"m 119 1055 l 407 1055 l 407 958 l 244 958 l 244 -86 l 407 -86 l 407 -183 l 119 -183 l 119 1055 "},"L":{"x_min":136,"x_max":766,"ha":774,"o":"m 136 1013 l 273 1013 l 273 115 l 766 115 l 766 0 l 136 0 l 136 1013 "}," ":{"x_min":0,"x_max":0,"ha":442},"ꙫ":{"x_min":76.640625,"x_max":913.5625,"ha":990,"o":"m 301 484 l 444 484 l 444 311 l 301 311 l 301 484 m 545 484 l 688 484 l 688 311 l 545 311 l 545 484 m 495 672 q 285 593 362 672 q 208 379 208 515 q 285 164 208 242 q 495 86 361 86 q 703 164 626 86 q 780 379 780 243 q 703 593 780 514 q 495 672 626 672 m 495 777 q 802 672 690 777 q 913 379 913 566 q 802 86 913 192 q 495 -19 690 -19 q 187 86 299 -19 q 76 379 76 192 q 187 672 76 566 q 495 777 299 777 "},"%":{"x_min":77,"x_max":1244,"ha":1320,"o":"m 1010 445 q 918 394 951 445 q 885 255 885 344 q 918 116 885 167 q 1010 66 951 66 q 1101 116 1068 66 q 1135 255 1135 167 q 1101 394 1135 343 q 1010 445 1068 445 m 1010 531 q 1180 456 1117 531 q 1244 255 1244 381 q 1180 54 1244 128 q 1010 -20 1117 -20 q 839 54 902 -20 q 776 255 776 128 q 839 456 776 382 q 1010 531 902 531 m 310 945 q 218 894 251 945 q 185 755 185 843 q 218 616 185 666 q 310 566 251 566 q 402 616 369 566 q 436 755 436 666 q 402 894 436 843 q 310 945 368 945 m 923 1031 l 1031 1031 l 397 -20 l 289 -20 l 923 1031 m 310 1031 q 481 956 417 1031 q 545 755 545 882 q 481 553 545 627 q 310 480 418 480 q 139 554 202 480 q 77 755 77 628 q 140 956 77 881 q 310 1031 203 1031 "},"P":{"x_min":136,"x_max":790,"ha":838,"o":"m 273 900 l 273 520 l 445 520 q 593 569 541 520 q 646 710 646 618 q 593 850 646 801 q 445 900 541 900 l 273 900 m 136 1013 l 445 1013 q 702 935 615 1013 q 790 710 790 858 q 702 483 790 560 q 445 407 615 407 l 273 407 l 273 0 l 136 0 l 136 1013 "},"À":{"x_min":11,"x_max":939,"ha":950,"o":"m 475 878 l 289 374 l 661 374 l 475 878 m 397 1013 l 553 1013 l 939 0 l 796 0 l 704 260 l 247 260 l 155 0 l 11 0 l 397 1013 m 435 1288 l 568 1109 l 465 1109 l 309 1288 l 435 1288 "},"_":{"x_min":-14,"x_max":708,"ha":695,"o":"m 708 -231 l 708 -328 l -14 -328 l -14 -231 l 708 -231 "},"ñ":{"x_min":126,"x_max":762,"ha":880,"o":"m 762 458 l 762 0 l 637 0 l 637 454 q 594 615 637 562 q 468 669 552 669 q 309 604 367 669 q 251 429 251 540 l 251 0 l 126 0 l 126 760 l 251 760 l 251 642 q 356 744 295 710 q 496 778 417 778 q 694 697 627 778 q 762 458 762 616 m 447 929 l 408 966 q 382 986 393 980 q 362 993 371 993 q 324 968 336 993 q 311 888 312 943 l 226 888 q 261 1029 227 979 q 358 1079 296 1079 q 405 1069 384 1079 q 452 1037 427 1060 l 491 1000 q 517 980 506 986 q 537 974 528 974 q 575 998 563 974 q 589 1079 587 1023 l 674 1079 q 638 937 672 987 q 541 888 603 888 q 494 897 515 888 q 447 929 472 906 "},"+":{"x_min":147,"x_max":1017,"ha":1164,"o":"m 639 871 l 639 493 l 1017 493 l 1017 378 l 639 378 l 639 0 l 525 0 l 525 378 l 147 378 l 147 493 l 525 493 l 525 871 l 639 871 "},"½":{"x_min":93,"x_max":1259,"ha":1346,"o":"m 106 528 l 244 528 l 244 942 l 93 914 l 93 993 l 249 1019 l 342 1019 l 342 528 l 481 528 l 481 453 l 106 453 l 106 528 m 971 77 l 1259 77 l 1259 0 l 853 0 l 853 74 q 918 133 876 95 q 1153 404 1153 340 q 1117 476 1153 449 q 1024 504 1082 504 q 947 492 989 504 q 857 457 906 480 l 857 540 q 954 568 909 559 q 1038 578 999 578 q 1195 533 1136 578 q 1255 415 1255 488 q 1030 127 1255 320 q 971 77 992 95 m 935 1031 l 1044 1031 l 411 -20 l 303 -20 l 935 1031 "},"Ꙧ":{"x_min":136.328125,"x_max":1555.84375,"ha":1637,"o":"m 136 1012 l 340 1012 l 598 323 l 858 1012 l 1555 1012 l 1555 897 l 1062 897 l 1062 0 l 929 0 l 925 0 l 925 880 l 668 194 l 530 194 l 269 889 l 269 0 l 136 0 l 136 1012 "},"Æ":{"x_min":5,"x_max":1264,"ha":1353,"o":"m 1251 1013 l 1251 898 l 749 898 l 749 598 l 1231 598 l 1231 483 l 749 483 l 749 115 l 1264 115 l 1264 0 l 611 0 l 611 260 l 252 260 l 144 0 l 5 0 l 429 1013 l 1251 1013 m 523 906 l 299 374 l 611 374 l 611 906 l 523 906 "},"ꙍ":{"x_min":103,"x_max":1324,"ha":1428,"o":"m 1230 654 q 1324 272 1324 460 q 1054 -20 1324 -20 q 895 56 997 -20 q 713 133 794 133 q 530 56 631 133 q 372 -20 428 -20 q 103 273 103 -20 q 197 654 103 460 l 331 654 q 232 262 232 432 q 372 86 232 86 q 464 123 414 86 q 559 193 545 185 q 713 231 627 231 q 866 193 798 231 q 961 123 879 185 q 1054 86 1011 86 q 1195 264 1195 86 q 1096 654 1195 432 l 1230 654 "},"₣":{"x_min":90.203125,"x_max":832.171875,"ha":884,"o":"m 250 259 l 250 1012 l 832 1012 l 832 897 l 387 897 l 387 598 l 788 598 l 788 483 l 387 483 l 387 259 l 556 259 l 556 212 l 387 212 l 387 0 l 250 0 l 250 212 l 90 212 l 90 259 l 250 259 "},"Ë":{"x_min":136,"x_max":788,"ha":878,"o":"m 136 1013 l 776 1013 l 776 898 l 273 898 l 273 598 l 755 598 l 755 483 l 273 483 l 273 115 l 788 115 l 788 0 l 136 0 l 136 1013 m 519 1269 l 657 1269 l 657 1131 l 519 1131 l 519 1269 m 253 1269 l 391 1269 l 391 1131 l 253 1131 l 253 1269 "},"'":{"x_min":134,"x_max":249,"ha":382,"o":"m 249 1013 l 249 637 l 134 637 l 134 1013 l 249 1013 "},"ª":{"x_min":78,"x_max":561.359375,"ha":654,"o":"m 94 401 l 561 401 l 561 318 l 94 318 l 94 401 m 560 789 l 560 486 l 459 486 l 459 562 q 380 496 429 519 q 268 473 331 473 q 129 518 181 473 q 78 641 78 564 q 142 779 78 732 q 335 826 207 826 l 459 826 l 459 828 q 419 921 459 890 q 299 953 379 953 q 211 941 257 953 q 119 907 165 930 l 119 993 q 217 1021 168 1012 q 314 1031 267 1031 q 499 971 438 1031 q 560 789 560 911 m 372 748 q 220 725 263 748 q 178 649 178 702 q 211 580 178 606 q 300 554 244 554 q 414 602 370 554 q 459 728 459 651 l 459 748 l 372 748 "},"Ꚕ":{"x_min":119,"x_max":816,"ha":952,"o":"m 257 737 l 257 598 l 539 598 q 740 518 665 598 q 816 278 816 439 l 816 0 l 680 0 l 680 267 q 637 429 680 375 q 511 483 595 483 l 257 483 l 257 0 l 119 0 l 119 737 q 174 947 119 882 q 352 1013 229 1013 l 532 1013 l 532 907 l 380 907 q 283 874 309 907 q 257 737 257 841 "},"₭":{"x_min":27.125,"x_max":883.046875,"ha":884,"o":"m 129 577 l 129 1012 l 257 1012 l 257 584 l 684 1012 l 849 1012 l 415 577 l 704 577 l 704 499 l 416 499 l 883 0 l 714 0 l 257 487 l 257 0 l 129 0 l 129 499 l 27 499 l 27 577 l 129 577 "},"ð":{"x_min":77,"x_max":774,"ha":850,"o":"m 568 620 q 505 637 534 632 q 447 643 475 643 q 271 569 334 643 q 209 364 209 496 q 267 161 209 236 q 425 86 326 86 q 583 161 524 86 q 642 364 642 236 q 623 510 642 446 q 568 620 605 574 m 611 774 q 735 579 696 677 q 774 364 774 481 q 677 85 774 191 q 425 -20 581 -20 q 172 85 268 -20 q 77 364 77 191 q 170 639 77 533 q 414 745 264 745 q 444 743 426 745 q 490 738 461 741 l 382 860 l 166 787 l 143 854 l 334 916 l 211 1055 l 366 1055 l 452 956 l 677 1031 l 700 966 l 500 900 l 611 774 "},"T":{"x_min":-4,"x_max":852,"ha":848,"o":"m -4 1013 l 852 1013 l 852 898 l 493 898 l 493 0 l 355 0 l 355 898 l -4 898 l -4 1013 "},"ꙧ":{"x_min":126.15625,"x_max":1332.03125,"ha":1400,"o":"m 126 759 l 308 759 l 524 250 l 740 759 l 1332 759 l 1332 659 l 921 659 l 921 0 l 796 0 l 796 640 l 586 145 l 461 145 l 251 640 l 251 0 l 126 0 l 126 759 "},"Þ":{"x_min":136,"x_max":790,"ha":840,"o":"m 136 1013 l 273 1013 l 273 834 l 445 834 q 702 757 615 834 q 790 532 790 681 q 702 306 790 383 q 445 230 615 230 l 273 230 l 273 0 l 136 0 l 136 1013 m 273 721 l 273 343 l 445 343 q 593 392 541 343 q 646 532 646 441 q 594 671 646 622 q 445 721 542 721 l 273 721 "},"₮":{"x_min":13.5625,"x_max":870.15625,"ha":884,"o":"m 373 616 l 373 897 l 13 897 l 13 1012 l 870 1012 l 870 897 l 510 897 l 510 713 l 666 822 l 720 747 l 510 600 l 510 508 l 666 618 l 720 543 l 510 396 l 510 0 l 373 0 l 373 299 l 216 190 l 164 265 l 373 412 l 373 504 l 215 394 l 163 469 l 373 616 "},"j":{"x_min":-25,"x_max":256,"ha":386,"o":"m 131 760 l 256 760 l 256 -13 q 200 -223 256 -158 q 22 -289 145 -289 l -25 -289 l -25 -183 l 8 -183 q 105 -150 79 -183 q 131 -13 131 -117 l 131 760 m 131 1055 l 256 1055 l 256 897 l 131 897 l 131 1055 "},"1":{"x_min":153,"x_max":756,"ha":884,"o":"m 172 115 l 396 115 l 396 888 l 153 839 l 153 964 l 395 1013 l 532 1013 l 532 115 l 756 115 l 756 0 l 172 0 l 172 115 "},"₡":{"x_min":78,"x_max":823.359375,"ha":884,"o":"m 591 1027 q 677 1009 635 1022 l 697 1080 l 803 1080 l 771 968 q 823 934 798 953 l 823 790 q 740 858 784 830 l 524 92 l 536 92 q 688 124 617 92 q 823 221 760 156 l 823 78 q 684 4 757 29 q 529 -19 611 -19 q 493 -18 510 -19 l 480 -61 l 375 -61 l 392 -2 q 309 30 348 10 l 284 -61 l 179 -61 l 223 94 q 198 121 210 107 q 78 505 78 261 q 198 890 78 749 q 486 1029 307 1015 l 500 1080 l 606 1080 l 591 1027 m 452 909 q 294 812 354 888 q 209 505 209 706 q 265 243 209 343 l 452 909 m 647 902 q 560 917 605 914 l 343 150 q 423 109 379 123 l 647 902 "},"ä":{"x_min":83,"x_max":725,"ha":851,"o":"m 475 382 q 266 347 324 382 q 208 228 208 312 q 251 123 208 162 q 370 84 295 84 q 537 157 474 84 q 600 354 600 231 l 600 382 l 475 382 m 725 433 l 725 0 l 600 0 l 600 115 q 493 12 557 45 q 337 -20 429 -20 q 151 45 220 -20 q 83 221 83 111 q 168 414 83 349 q 425 480 254 480 l 600 480 l 600 492 q 543 625 600 578 q 384 672 486 672 q 257 656 319 672 q 139 610 195 641 l 139 725 q 271 764 207 751 q 397 778 336 778 q 643 692 562 778 q 725 433 725 607 m 468 1053 l 606 1053 l 606 916 l 468 916 l 468 1053 m 202 1053 l 340 1053 l 340 916 l 202 916 l 202 1053 "},"<":{"x_min":147,"x_max":1016,"ha":1164,"o":"m 1016 683 l 316 434 l 1016 187 l 1016 64 l 147 379 l 147 491 l 1016 807 l 1016 683 "},"£":{"x_min":88,"x_max":762,"ha":884,"o":"m 748 990 l 748 867 q 650 908 696 894 q 562 922 604 922 q 423 869 462 922 q 384 673 384 816 l 384 527 l 649 527 l 649 430 l 384 430 l 384 115 l 762 115 l 762 0 l 88 0 l 88 115 l 248 115 l 248 430 l 113 430 l 113 527 l 248 527 l 248 688 q 320 948 248 866 q 550 1031 393 1031 q 643 1020 591 1031 q 748 990 694 1009 "},"¹":{"x_min":93,"x_max":481,"ha":557,"o":"m 106 528 l 244 528 l 244 942 l 93 914 l 93 993 l 249 1019 l 342 1019 l 342 528 l 481 528 l 481 453 l 106 453 l 106 528 "},"t":{"x_min":37,"x_max":511,"ha":545,"o":"m 254 976 l 254 760 l 511 760 l 511 663 l 254 663 l 254 250 q 279 130 254 156 q 382 104 304 104 l 511 104 l 511 0 l 382 0 q 183 53 238 0 q 129 250 129 107 l 129 663 l 37 663 l 37 760 l 129 760 l 129 976 l 254 976 "},"¬":{"x_min":147,"x_max":1016,"ha":1164,"o":"m 147 585 l 1016 585 l 1016 195 l 902 195 l 902 470 l 147 470 l 147 585 "},"Ꙗ":{"x_min":143.109375,"x_max":1344.921875,"ha":1356,"o":"m 803 1012 l 959 1012 l 1344 0 l 1202 0 l 1110 259 l 653 259 l 561 0 l 417 0 l 588 448 l 280 448 l 280 0 l 143 0 l 143 1012 l 280 1012 l 280 563 l 632 563 l 803 1012 m 881 877 l 695 373 l 1067 373 l 881 877 "},"ù":{"x_min":118,"x_max":754,"ha":880,"o":"m 118 299 l 118 760 l 243 760 l 243 304 q 284 142 243 196 q 410 89 326 89 q 570 153 511 89 q 629 328 629 217 l 629 760 l 754 760 l 754 0 l 629 0 l 629 116 q 523 13 583 46 q 384 -20 463 -20 q 185 61 253 -20 q 118 299 118 142 m 431 778 l 431 778 m 331 1111 l 523 857 l 419 857 l 198 1111 l 331 1111 "},"W":{"x_min":46,"x_max":1328,"ha":1373,"o":"m 46 1013 l 184 1013 l 397 156 l 609 1013 l 763 1013 l 976 156 l 1188 1013 l 1328 1013 l 1073 0 l 901 0 l 687 879 l 471 0 l 299 0 l 46 1013 "},"ꚕ":{"x_min":126,"x_max":762,"ha":880,"o":"m 762 458 l 762 0 l 637 0 l 637 454 q 594 615 637 562 q 468 669 552 669 q 309 604 367 669 q 251 429 251 540 l 251 0 l 126 0 l 126 779 q 181 989 126 924 q 359 1055 236 1055 l 532 1055 l 532 949 l 375 949 q 277 916 303 949 q 251 779 251 883 l 251 642 q 356 744 295 710 q 496 778 417 778 q 694 697 627 778 q 762 458 762 616 "},"ï":{"x_min":-9,"x_max":396,"ha":386,"o":"m 131 760 l 256 760 l 256 0 l 131 0 l 131 760 m 193 778 l 193 778 m 258 1053 l 396 1053 l 396 916 l 258 916 l 258 1053 m -9 1053 l 129 1053 l 129 916 l -9 916 l -9 1053 "},">":{"x_min":147,"x_max":1016,"ha":1164,"o":"m 147 683 l 147 807 l 1016 491 l 1016 379 l 147 64 l 147 187 l 845 434 l 147 683 "},"v":{"x_min":41,"x_max":780,"ha":822,"o":"m 41 760 l 173 760 l 410 122 l 647 760 l 780 760 l 495 0 l 325 0 l 41 760 "},"û":{"x_min":118,"x_max":754,"ha":880,"o":"m 118 299 l 118 760 l 243 760 l 243 304 q 284 142 243 196 q 410 89 326 89 q 570 153 511 89 q 629 328 629 217 l 629 760 l 754 760 l 754 0 l 629 0 l 629 116 q 523 13 583 46 q 384 -20 463 -20 q 185 61 253 -20 q 118 299 118 142 m 431 778 l 431 778 m 385 1111 l 486 1111 l 652 856 l 557 856 l 436 1022 l 314 856 l 220 856 l 385 1111 "},"Ò":{"x_min":78,"x_max":1015,"ha":1093,"o":"m 547 920 q 309 808 397 920 q 222 505 222 697 q 309 202 222 313 q 547 91 397 91 q 783 202 696 91 q 871 505 871 313 q 783 808 871 697 q 547 920 696 920 m 547 1031 q 887 888 760 1031 q 1015 505 1015 745 q 887 122 1015 265 q 547 -20 760 -20 q 205 122 333 -20 q 78 505 78 264 q 205 888 78 745 q 547 1031 333 1031 m 508 1288 l 641 1109 l 538 1109 l 382 1288 l 508 1288 "},"Ꙣ":{"x_min":68.5,"x_max":1394.421875,"ha":1475,"o":"m 116 115 q 233 239 207 158 q 299 821 299 448 l 299 1012 l 1394 1012 l 1394 897 l 901 897 l 901 115 l 1016 115 l 1016 -217 l 901 -217 l 901 0 l 764 0 l 183 0 l 183 -217 l 68 -217 l 68 115 l 116 115 m 764 897 l 435 897 l 435 753 q 359 190 435 415 q 316 115 343 144 l 764 115 l 764 897 "},"Ꙑ":{"x_min":41,"x_max":1292,"ha":1429,"o":"m 340 0 l 340 898 l 41 898 l 41 1013 l 477 1013 l 477 596 l 703 596 q 965 522 873 596 q 1058 297 1058 448 q 965 73 1058 147 q 703 0 873 0 l 340 0 m 914 297 q 860 437 914 391 q 696 483 807 483 l 477 483 l 477 113 l 696 113 q 860 159 806 113 q 914 297 914 204 m 1155 1013 l 1292 1013 l 1292 0 l 1155 0 l 1155 1013 "},"&":{"x_min":87,"x_max":1040,"ha":1083,"o":"m 337 544 q 246 434 275 489 q 218 320 218 380 q 289 155 218 221 q 469 90 361 90 q 590 111 534 90 q 696 176 646 132 l 337 544 m 432 620 l 777 267 q 840 396 817 328 q 867 543 862 465 l 993 543 q 949 366 984 453 q 851 193 914 278 l 1040 0 l 869 0 l 772 99 q 624 9 701 39 q 458 -20 546 -20 q 190 73 294 -20 q 87 312 87 166 q 132 475 87 399 q 268 619 177 551 q 219 704 236 661 q 202 787 202 746 q 277 964 202 897 q 477 1031 352 1031 q 589 1018 533 1031 q 703 982 645 1006 l 703 859 q 590 907 644 890 q 490 924 536 924 q 375 886 419 924 q 331 788 331 848 q 350 719 331 754 q 432 620 370 684 "},"Ð":{"x_min":7,"x_max":994,"ha":1076,"o":"m 143 1013 l 425 1013 q 856 890 718 1013 q 994 507 994 768 q 856 122 994 245 q 425 0 718 0 l 143 0 l 143 474 l 7 474 l 7 572 l 143 572 l 143 1013 m 281 900 l 281 572 l 509 572 l 509 474 l 281 474 l 281 113 l 445 113 q 752 207 655 113 q 850 507 850 302 q 752 805 850 710 q 445 900 655 900 l 281 900 "},"I":{"x_min":136,"x_max":273,"ha":410,"o":"m 136 1013 l 273 1013 l 273 0 l 136 0 l 136 1013 "},"G":{"x_min":78,"x_max":962,"ha":1076,"o":"m 826 144 l 826 416 l 602 416 l 602 529 l 962 529 l 962 94 q 787 8 882 37 q 583 -20 691 -20 q 211 118 345 -20 q 78 505 78 257 q 211 892 78 753 q 583 1031 345 1031 q 771 1006 682 1031 q 936 935 860 982 l 936 789 q 774 885 859 853 q 594 918 688 918 q 315 814 408 918 q 222 505 222 710 q 315 196 222 300 q 594 93 408 93 q 723 105 666 93 q 826 144 780 118 "},"`":{"x_min":115,"x_max":440,"ha":695,"o":"m 248 1111 l 440 857 l 336 857 l 115 1111 l 248 1111 "},"·":{"x_min":149,"x_max":292,"ha":442,"o":"m 149 568 l 292 568 l 292 396 l 149 396 l 149 568 "},"r":{"x_min":126,"x_max":571,"ha":571,"o":"m 571 643 q 525 661 549 655 q 470 667 500 667 q 307 598 364 667 q 251 400 251 529 l 251 0 l 126 0 l 126 760 l 251 760 l 251 642 q 353 744 290 711 q 507 778 416 778 q 535 776 520 778 q 570 771 551 774 l 571 643 "},"₤":{"x_min":87.484375,"x_max":760.96875,"ha":884,"o":"m 383 333 l 383 115 l 760 115 l 760 0 l 87 0 l 87 115 l 247 115 l 247 333 l 118 333 l 118 430 l 247 430 l 247 527 l 112 527 l 112 624 l 247 624 l 247 689 q 320 948 247 866 q 550 1030 392 1030 q 642 1020 591 1030 q 747 990 693 1009 l 747 866 q 649 908 695 894 q 562 922 603 922 q 422 869 461 922 q 383 673 383 817 l 383 624 l 648 624 l 648 527 l 383 527 l 383 430 l 653 430 l 653 333 l 383 333 "},"¿":{"x_min":97,"x_max":638,"ha":737,"o":"m 340 741 l 469 741 l 469 635 q 450 522 469 566 q 370 419 431 478 l 309 359 q 252 291 269 323 q 235 226 235 259 q 279 128 235 165 q 397 91 323 91 q 511 114 450 91 q 638 184 572 138 l 638 56 q 509 -1 574 17 q 373 -20 443 -20 q 173 45 249 -20 q 97 219 97 111 q 121 317 97 271 q 207 422 146 364 l 267 480 q 312 530 299 512 q 331 565 325 548 q 337 600 335 580 q 340 657 340 620 l 340 741 m 473 841 l 336 841 l 336 1013 l 473 1013 l 473 841 "},"ý":{"x_min":41,"x_max":780,"ha":822,"o":"m 446 -70 q 343 -247 393 -206 q 209 -289 293 -289 l 110 -289 l 110 -185 l 183 -185 q 263 -160 234 -185 q 326 -44 291 -136 l 348 12 l 41 760 l 173 760 l 410 165 l 647 760 l 780 760 l 446 -70 m 504 1111 l 640 1111 l 418 856 l 315 856 l 504 1111 "},"x":{"x_min":40,"x_max":777,"ha":822,"o":"m 763 760 l 488 390 l 777 0 l 629 0 l 408 298 l 187 0 l 40 0 l 335 397 l 65 760 l 212 760 l 414 489 l 615 760 l 763 760 "},"è":{"x_min":77,"x_max":781,"ha":855,"o":"m 781 411 l 781 350 l 207 350 q 284 153 215 221 q 478 86 354 86 q 617 103 550 86 q 752 157 685 121 l 752 39 q 614 -4 684 10 q 471 -20 543 -20 q 183 85 289 -20 q 77 372 77 191 q 177 668 77 558 q 449 778 278 778 q 691 679 602 778 q 781 411 781 580 m 656 448 q 598 611 654 550 q 450 672 542 672 q 283 613 346 672 q 211 447 220 554 l 656 448 m 342 1111 l 534 857 l 430 857 l 209 1111 l 342 1111 "},"º":{"x_min":65,"x_max":589,"ha":654,"o":"m 94 401 l 561 401 l 561 318 l 94 318 l 94 401 m 327 1031 q 519 955 449 1031 q 589 751 589 880 q 519 547 589 621 q 327 473 449 473 q 135 547 206 473 q 65 751 65 622 q 135 955 65 880 q 327 1031 206 1031 m 327 953 q 213 898 256 953 q 171 751 171 843 q 214 606 171 660 q 327 552 257 552 q 441 606 399 552 q 484 751 484 660 q 441 898 484 844 q 327 953 399 953 "},"Ø":{"x_min":69.1875,"x_max":1023.140625,"ha":1093,"o":"m 818 754 l 331 179 q 428 113 373 136 q 547 91 482 91 q 783 202 696 91 q 871 505 871 313 q 857 643 871 581 q 818 754 844 706 m 762 831 q 666 897 720 874 q 547 920 611 920 q 309 808 397 920 q 222 505 222 697 q 235 365 222 429 q 274 255 248 301 l 762 831 m 184 148 q 104 306 131 217 q 78 505 78 396 q 205 888 78 745 q 547 1031 333 1031 q 710 1004 635 1031 q 844 928 785 978 l 954 1057 l 1023 997 l 908 862 q 987 702 960 793 q 1015 505 1015 612 q 887 122 1015 265 q 546 -20 759 -20 q 385 5 460 -20 q 248 81 310 30 l 138 -47 l 69 12 l 184 148 "},"÷":{"x_min":147,"x_max":1016,"ha":1164,"o":"m 498 770 l 665 770 l 665 603 l 498 603 l 498 770 m 498 268 l 665 268 l 665 102 l 498 102 l 498 268 m 147 493 l 1016 493 l 1016 378 l 147 378 l 147 493 "},"h":{"x_min":126,"x_max":762,"ha":880,"o":"m 762 458 l 762 0 l 637 0 l 637 454 q 594 615 637 562 q 468 669 552 669 q 309 604 367 669 q 251 429 251 540 l 251 0 l 126 0 l 126 1055 l 251 1055 l 251 642 q 356 744 295 710 q 496 778 417 778 q 694 697 627 778 q 762 458 762 616 "},"Ꙇ":{"x_min":136,"x_max":481,"ha":491,"o":"m 136 1013 l 273 1013 l 273 348 q 310 165 273 216 q 438 115 347 115 l 481 115 l 481 0 l 428 0 q 205 82 274 0 q 136 348 136 165 l 136 1013 "},".":{"x_min":149,"x_max":292,"ha":442,"o":"m 149 172 l 292 172 l 292 0 l 149 0 l 149 172 "},"₱":{"x_min":46.125,"x_max":804.375,"ha":884,"o":"m 102 680 l 102 739 l 46 739 l 46 817 l 102 817 l 102 1012 l 411 1012 q 669 935 581 1012 q 741 817 720 889 l 804 817 l 804 739 l 755 739 q 756 710 756 725 q 755 680 756 695 l 803 680 l 803 602 l 742 602 q 669 483 721 529 q 411 406 581 406 l 239 406 l 239 0 l 102 0 l 102 602 l 46 602 l 46 680 l 102 680 m 585 602 l 239 602 l 239 519 l 411 519 q 559 569 507 519 q 585 602 575 583 m 239 817 l 585 817 q 559 850 575 836 q 411 900 507 900 l 239 900 l 239 817 m 610 739 l 239 739 l 239 680 l 610 680 q 611 710 611 695 q 610 739 611 725 "},";":{"x_min":107,"x_max":306,"ha":468,"o":"m 163 718 l 306 718 l 306 546 l 163 546 l 163 718 m 163 172 l 306 172 l 306 55 l 194 -162 l 107 -162 l 163 55 l 163 172 "},"f":{"x_min":32,"x_max":515,"ha":489,"o":"m 515 1055 l 515 951 l 395 951 q 302 924 328 951 q 276 826 276 897 l 276 760 l 482 760 l 482 663 l 276 663 l 276 0 l 151 0 l 151 663 l 32 663 l 32 760 l 151 760 l 151 812 q 209 997 151 939 q 397 1055 268 1055 l 515 1055 "},"ꙇ":{"x_min":113,"x_max":422,"ha":470,"o":"m 241 760 l 241 268 q 264 138 241 169 q 361 106 288 106 l 422 106 l 422 0 l 346 0 q 169 65 224 0 q 113 275 113 131 l 113 760 l 241 760 "},"A":{"x_min":11,"x_max":939,"ha":950,"o":"m 475 878 l 289 374 l 661 374 l 475 878 m 397 1013 l 553 1013 l 939 0 l 796 0 l 704 260 l 247 260 l 155 0 l 11 0 l 397 1013 "},"6":{"x_min":97,"x_max":796,"ha":884,"o":"m 458 561 q 311 497 365 561 q 258 325 258 434 q 311 152 258 215 q 458 89 365 89 q 604 152 550 89 q 658 325 658 215 q 604 497 658 434 q 458 561 550 561 m 730 990 l 730 865 q 625 902 678 889 q 521 916 573 916 q 314 824 386 916 q 233 547 243 732 q 333 638 273 606 q 466 670 393 670 q 707 577 618 670 q 796 325 796 484 q 703 74 796 168 q 458 -20 611 -20 q 189 114 282 -20 q 97 505 97 249 q 210 888 97 745 q 516 1031 324 1031 q 620 1020 568 1031 q 730 990 673 1010 "},"O":{"x_min":78,"x_max":1015,"ha":1093,"o":"m 547 920 q 309 808 397 920 q 222 505 222 697 q 309 202 222 313 q 547 91 397 91 q 783 202 696 91 q 871 505 871 313 q 783 808 871 697 q 547 920 696 920 m 547 1031 q 887 888 760 1031 q 1015 505 1015 745 q 887 122 1015 265 q 547 -20 760 -20 q 205 122 333 -20 q 78 505 78 264 q 205 888 78 745 q 547 1031 333 1031 "},"n":{"x_min":126,"x_max":762,"ha":880,"o":"m 762 458 l 762 0 l 637 0 l 637 454 q 594 615 637 562 q 468 669 552 669 q 309 604 367 669 q 251 429 251 540 l 251 0 l 126 0 l 126 760 l 251 760 l 251 642 q 356 744 295 710 q 496 778 417 778 q 694 697 627 778 q 762 458 762 616 "},"3":{"x_min":106,"x_max":773,"ha":884,"o":"m 564 546 q 717 458 662 525 q 773 294 773 392 q 669 62 773 144 q 376 -20 566 -20 q 245 -7 312 -20 q 106 30 177 5 l 106 162 q 230 111 163 128 q 372 95 298 95 q 569 145 501 95 q 637 294 637 196 q 574 434 637 383 q 399 485 511 485 l 281 485 l 281 598 l 404 598 q 559 638 505 598 q 613 754 613 678 q 557 874 613 832 q 399 916 502 916 q 278 903 342 916 q 137 866 214 891 l 137 988 q 283 1020 214 1009 q 411 1031 351 1031 q 658 960 567 1031 q 749 768 749 889 q 700 626 749 684 q 564 546 652 568 "},"9":{"x_min":87,"x_max":786,"ha":884,"o":"m 152 21 l 152 146 q 256 108 203 121 q 360 95 309 95 q 568 186 496 95 q 650 463 639 277 q 550 374 610 405 q 416 343 489 343 q 175 434 264 343 q 87 686 87 526 q 179 936 87 842 q 424 1031 271 1031 q 693 896 600 1031 q 786 505 786 761 q 672 122 786 265 q 366 -20 558 -20 q 261 -9 314 -20 q 152 21 209 0 m 425 450 q 571 513 517 450 q 625 686 625 576 q 571 858 625 795 q 425 922 517 922 q 278 858 332 922 q 225 686 225 795 q 278 513 225 576 q 425 450 332 450 "},"ꙣ":{"x_min":72.5625,"x_max":1198.421875,"ha":1266,"o":"m 119 99 q 208 184 181 126 q 274 615 274 327 l 274 759 l 1198 759 l 1198 659 l 788 659 l 788 99 l 887 99 l 887 -191 l 788 -191 l 788 0 l 662 0 l 172 0 l 172 -191 l 72 -191 l 72 99 l 119 99 m 662 659 l 400 659 l 400 564 q 320 136 400 285 l 300 99 l 662 99 l 662 659 "},"l":{"x_min":131,"x_max":256,"ha":386,"o":"m 131 1055 l 256 1055 l 256 0 l 131 0 l 131 1055 "},"¤":{"x_min":63.640625,"x_max":822,"ha":884,"o":"m 604 673 l 744 815 l 822 737 l 682 597 q 719 517 707 557 q 732 435 732 477 q 719 353 732 392 q 679 275 706 314 l 820 135 l 743 58 l 603 198 q 524 158 563 171 q 443 146 484 146 q 363 158 403 146 q 281 196 322 171 l 140 56 l 63 133 l 204 273 q 166 355 179 315 q 154 435 154 395 q 166 517 154 478 q 205 595 179 557 l 65 734 l 143 813 l 283 672 q 360 711 321 698 q 443 724 399 724 q 523 711 484 724 q 604 673 563 699 m 626 436 q 573 564 626 512 q 443 617 520 617 q 313 564 367 617 q 260 436 260 512 q 313 305 260 358 q 443 253 366 253 q 573 306 520 253 q 626 436 626 359 "},"4":{"x_min":68,"x_max":805,"ha":884,"o":"m 525 893 l 179 353 l 525 353 l 525 893 m 488 1013 l 661 1013 l 661 353 l 805 353 l 805 239 l 661 239 l 661 0 l 525 0 l 525 239 l 68 239 l 68 371 l 488 1013 "},"p":{"x_min":126,"x_max":806,"ha":882,"o":"m 251 114 l 251 -289 l 126 -289 l 126 760 l 251 760 l 251 644 q 350 745 290 712 q 494 778 410 778 q 719 668 632 778 q 806 379 806 558 q 719 89 806 199 q 494 -20 632 -20 q 350 12 410 -20 q 251 114 290 45 m 676 379 q 619 595 676 516 q 463 674 562 674 q 307 595 364 674 q 251 379 251 516 q 307 162 251 241 q 463 84 364 84 q 619 162 562 84 q 676 379 676 241 "},"à":{"x_min":83,"x_max":725,"ha":851,"o":"m 475 382 q 266 347 324 382 q 208 228 208 312 q 251 123 208 162 q 370 84 295 84 q 537 157 474 84 q 600 354 600 231 l 600 382 l 475 382 m 725 433 l 725 0 l 600 0 l 600 115 q 493 12 557 45 q 337 -20 429 -20 q 151 45 220 -20 q 83 221 83 111 q 168 414 83 349 q 425 480 254 480 l 600 480 l 600 492 q 543 625 600 578 q 384 672 486 672 q 257 656 319 672 q 139 610 195 641 l 139 725 q 271 764 207 751 q 397 778 336 778 q 643 692 562 778 q 725 433 725 607 m 304 1111 l 496 857 l 392 857 l 171 1111 l 304 1111 "},"Ü":{"x_min":121,"x_max":896,"ha":1017,"o":"m 121 1013 l 259 1013 l 259 397 q 317 162 259 234 q 508 91 376 91 q 699 162 640 91 q 758 397 758 234 l 758 1013 l 896 1013 l 896 380 q 798 81 896 182 q 508 -20 700 -20 q 218 81 316 -20 q 121 380 121 182 l 121 1013 m 572 1269 l 710 1269 l 710 1131 l 572 1131 l 572 1269 m 307 1269 l 445 1269 l 445 1131 l 307 1131 l 307 1269 "},"ó":{"x_min":77,"x_max":774,"ha":850,"o":"m 425 672 q 267 593 325 672 q 209 379 209 515 q 266 164 209 242 q 425 86 324 86 q 583 164 525 86 q 642 379 642 243 q 583 592 642 513 q 425 672 525 672 m 425 778 q 681 672 588 778 q 774 379 774 566 q 681 86 774 192 q 425 -20 588 -20 q 169 86 262 -20 q 77 379 77 192 q 169 672 77 566 q 425 778 262 778 m 518 1111 l 654 1111 l 432 856 l 329 856 l 518 1111 "},"₴":{"x_min":79.359375,"x_max":995.625,"ha":1075,"o":"m 236 456 q 253 476 238 461 q 390 556 303 526 l 79 556 l 79 639 l 699 639 q 716 651 707 644 q 756 752 756 680 q 695 876 756 832 q 522 919 634 919 q 389 901 458 919 q 242 845 320 883 l 242 979 q 393 1018 319 1005 q 538 1030 467 1030 q 799 953 704 1030 q 893 741 893 876 q 876 639 893 684 l 995 639 l 995 556 l 819 556 q 603 465 750 493 l 558 456 l 995 456 l 995 373 l 357 373 q 324 269 324 333 q 387 137 324 183 q 569 91 451 91 q 726 115 646 91 q 889 185 806 139 l 889 44 q 721 -3 803 12 q 569 -19 640 -19 q 279 56 378 -19 q 181 279 181 132 q 193 373 181 330 l 79 373 l 79 456 l 236 456 "}}}
